<svg width="61" height="61" viewBox="0 0 61 61" fill="none" xmlns="http://www.w3.org/2000/svg">
<g clip-path="url(#clip0_14_2)">
<path d="M30.7618 0C47.4428 0 61 13.941 61 30.4924C61 47.0386 47.4529 60.967 30.7542 60.967L0 61V29.9663C0 13.42 14.0605 0 30.7618 0ZM31.0566 11.5976C27.8176 11.5941 24.6327 12.4276 21.8107 14.0174C18.9887 15.6072 16.6254 17.8993 14.9501 20.6714C13.2885 23.4303 12.3794 26.5767 12.3134 29.7966C12.2474 33.0165 13.0268 36.1975 14.5739 39.0222L11.1833 49.8421L23.3681 47.1123C26.7777 48.6359 30.5627 49.1134 34.2438 48.4845C37.925 47.8556 41.3367 46.1485 44.0471 43.5794C46.7424 41.0289 48.6057 37.7246 49.3933 34.0983C50.181 30.4721 49.8564 26.6926 48.462 23.2537C47.0516 19.8026 44.6441 16.8505 41.5474 14.7746C38.4506 12.6988 34.8051 11.5935 31.077 11.6002L31.0566 11.5976Z" fill="#717780"/>
</g>
<defs>
<clipPath id="clip0_14_2">
<rect width="61" height="61" fill="white"/>
</clipPath>
</defs>
</svg>
