<svg width="46" height="31" viewBox="0 0 46 31" fill="none" xmlns="http://www.w3.org/2000/svg">
<path d="M11.6386 0C6.27452 0 0 3.05349 0 11.6275C0 17.2694 3.89931 23.3764 12.4897 23.3764H16.2306L23.475 30.8989L23.5542 30.9798H28.8193V12.0522C28.8193 3.74103 23 0 17.2599 0H11.6386ZM23.3959 23.2146L20.4268 19.6151C19.457 18.422 18.012 17.7547 16.4879 17.7547H12.4699C9.22374 17.7547 5.4234 16.1572 5.4234 11.6073C5.4234 6.1272 9.9561 5.54077 11.9156 5.54077H16.963C20.0706 5.54077 23.3959 7.19896 23.3959 11.8904V23.2146Z" fill="#030504"/>
<path d="M39.6265 25.2368C38.5972 25.2368 37.7659 24.3875 37.7659 23.2955V0.626875H32.1644V23.7808C32.1644 27.7645 35.2917 31 39.1119 31H46V25.257H39.6067L39.6265 25.2368Z" fill="#030504"/>
</svg>
