<svg width="228" height="32" viewBox="0 0 228 32" fill="none" xmlns="http://www.w3.org/2000/svg">
<path d="M122.989 5.4469C118.486 5.4469 113.219 7.95243 113.219 14.9878C113.219 19.6173 116.492 24.6283 123.704 24.6283H126.844L132.925 30.8009L132.992 30.8673H137.411V15.3363C137.411 8.51659 132.526 5.4469 127.708 5.4469H122.989ZM132.859 24.4956L130.366 21.542C129.552 20.5631 128.339 20.0155 127.06 20.0155H123.687C120.962 20.0155 117.772 18.7046 117.772 14.9712C117.772 10.4746 121.577 9.99336 123.222 9.99336H127.459C130.067 9.99336 132.859 11.354 132.859 15.2035V24.4956Z" fill="#030712"/>
<path d="M146.483 26.1549C145.619 26.1549 144.922 25.458 144.922 24.5619V5.96128H140.219V24.9602C140.219 28.229 142.845 30.8839 146.051 30.8839H151.834V26.1715H146.467L146.483 26.1549Z" fill="#030712"/>
<path d="M110.826 10.0265V6.14381H107.636V1H103.881L103.1 6.14381H100.774V10.0265H102.967V20.5465C102.967 21.3263 103.1 22.073 103.366 22.8197C103.665 23.5664 104.164 24.1803 104.845 24.6615C105.543 25.1427 106.49 25.3584 107.653 25.3584C107.985 25.3584 108.351 25.3252 108.733 25.2589C109.115 25.2091 109.464 25.1427 109.796 25.0431C110.162 24.9768 110.461 24.8938 110.71 24.7942L110.826 24.7445V21.4757H108.982C108.5 21.4757 108.185 21.3595 107.969 21.1604C107.753 20.9281 107.636 20.5962 107.636 20.1316V10.0265H110.826Z" fill="#030712"/>
<path d="M96.1882 6.77434C95.075 6.07743 93.7457 5.72898 92.2005 5.72898C90.9875 5.72898 89.8743 5.97788 88.8607 6.47566L88.678 6.57522C87.7807 7.03982 87.0497 7.70354 86.4681 8.56637L86.1524 6.30973L86.1192 6.14381H82.2311V31H86.8835V22.9193C87.249 23.417 87.6644 23.8485 88.1629 24.2135C88.7278 24.5951 89.3592 24.8938 90.0903 25.0763L90.3561 25.1427C91.0042 25.292 91.702 25.3584 92.4497 25.3584C93.862 25.3584 95.1082 25.01 96.1882 24.3131C97.3014 23.6162 98.1655 22.5376 98.7968 21.0774L98.8965 20.8119C99.4448 19.4016 99.7107 17.6593 99.7107 15.5852C99.7107 13.3285 99.4116 11.4701 98.7968 10.01C98.1987 8.56637 97.3347 7.47124 96.1882 6.77434ZM86.8835 15.3363C86.8835 14.1084 87.033 13.0962 87.2989 12.2832C87.598 11.4535 88.03 10.8396 88.5949 10.4082C89.1931 9.99336 89.9408 9.77765 90.8712 9.77765C91.9014 9.77765 92.6823 9.99336 93.2473 10.375L93.2639 10.3916C93.8454 10.7566 94.2608 11.3374 94.51 12.167C94.7759 12.9967 94.9254 14.042 94.9254 15.3363V15.8341C94.9254 17.0122 94.7925 18.0077 94.5599 18.8042L94.51 18.9535C94.2774 19.7168 93.8953 20.281 93.3636 20.6626L93.2473 20.7456C92.6823 21.1106 91.9014 21.3097 90.8712 21.3097C90.1734 21.3097 89.5586 21.177 89.0601 20.9447C88.5783 20.6958 88.1629 20.3473 87.8306 19.8827C87.5647 19.4845 87.3487 18.9867 87.1992 18.4226L87.1327 18.1571C86.9666 17.4602 86.8835 16.6471 86.8835 15.7511V15.3363Z" fill="#030712"/>
<path d="M78.3099 8.38385C77.828 7.50442 77.1966 6.84071 76.3825 6.42589L76.2163 6.34292C75.3523 5.9281 74.3554 5.72898 73.2255 5.72898C72.4446 5.72898 71.7135 5.84513 71.0157 6.07743L70.8827 6.12721C70.1683 6.35951 69.5369 6.70796 68.9719 7.17257C68.4569 7.58739 67.9916 8.05199 67.5929 8.59956H67.5762C67.1276 7.67035 66.5128 6.95686 65.7319 6.50885L65.5658 6.40929C64.7018 5.96128 63.7048 5.72898 62.6082 5.72898C61.794 5.72898 61.0297 5.86173 60.3319 6.12721C59.7503 6.34292 59.202 6.625 58.7202 7.00664L58.5208 7.17257C58.0223 7.58739 57.5903 8.05199 57.1915 8.58296L56.8426 6.14381H52.9213V24.9436H57.5737V14.042C57.5737 13.2456 57.7066 12.5653 57.9558 11.9679L58.0223 11.8518C58.3214 11.2212 58.7368 10.74 59.2519 10.3916C59.7669 10.0265 60.3485 9.86062 60.9965 9.86062C61.3953 9.86062 61.7608 9.9104 62.0931 10.0265C62.442 10.1261 62.7079 10.292 62.9239 10.5243L62.9405 10.5409C63.1565 10.74 63.3393 11.0553 63.4722 11.4701C63.6051 11.8684 63.6882 12.3662 63.6882 12.9967V24.9436H68.3406V14.042C68.3406 13.1958 68.4901 12.4657 68.7726 11.8518C69.0883 11.2212 69.5036 10.74 70.0187 10.375C70.5172 10.0265 71.0821 9.86062 71.7301 9.86062C72.1289 9.86062 72.4944 9.9104 72.8268 10.0265C73.1757 10.1261 73.4415 10.292 73.6575 10.5243C73.8901 10.74 74.0729 11.0553 74.2058 11.4701C74.3388 11.8684 74.4052 12.3662 74.4052 12.9967V24.9436H79.0742V12.1173C79.0742 10.6737 78.8416 9.49557 78.393 8.56637L78.3099 8.38385Z" fill="#030712"/>
<path d="M49.1828 10.0431C48.5348 8.66593 47.5711 7.63717 46.3083 6.94027L46.0425 6.79093C44.68 6.07743 42.9686 5.72898 40.9083 5.72898C39.0141 5.72898 37.3858 6.04425 36.0399 6.67478L35.7741 6.80752C34.3784 7.48783 33.3316 8.58296 32.6338 10.0431C31.9525 11.4701 31.6036 13.3119 31.6036 15.552C31.6036 17.792 31.9525 19.6007 32.6338 21.0608L32.7833 21.3263C33.4645 22.6538 34.4615 23.6493 35.7741 24.3296C37.1698 25.0266 38.8812 25.3584 40.9083 25.3584C42.9354 25.3584 44.68 25.0266 46.0425 24.3296C47.4382 23.6162 48.485 22.521 49.1828 21.0608L49.3158 20.7788C49.9139 19.3684 50.213 17.6261 50.213 15.552C50.213 13.4779 49.9139 11.7024 49.3158 10.3086L49.1828 10.0431ZM36.904 19.1692L36.8541 19.0199C36.555 18.1571 36.4055 17.0785 36.4055 15.7843V15.3031C36.4055 14.0088 36.555 12.9469 36.8541 12.1173C37.1698 11.2544 37.635 10.6405 38.283 10.2423C38.9477 9.82743 39.8117 9.61173 40.9083 9.61173C42.0049 9.61173 42.8689 9.82743 43.5003 10.2423H43.5169C44.1649 10.6405 44.6468 11.2544 44.9459 12.1007C45.2616 12.9469 45.4111 14.0088 45.4111 15.3031V15.7843C45.4111 16.9956 45.2782 18.0243 44.9957 18.854L44.9459 19.0199C44.6634 19.7998 44.2314 20.3805 43.6332 20.7954L43.5169 20.8783C42.8689 21.2765 42.0049 21.4757 40.9083 21.4757C39.8117 21.4757 38.9477 21.2765 38.283 20.8783C37.6849 20.4801 37.2197 19.9159 36.904 19.1692Z" fill="#030712"/>
<path d="M30.9722 6.11062L30.8559 6.06084C30.6731 5.97788 30.4239 5.9115 30.0916 5.84513C29.7593 5.76217 29.4103 5.72898 29.0282 5.72898C28.2805 5.72898 27.6325 5.87832 27.0676 6.17699L26.9679 6.24336C26.4362 6.54204 26.0042 6.94027 25.6386 7.42146L25.5722 7.52102C25.2731 7.96903 25.0238 8.45022 24.8078 8.9646L24.4921 6.30973L24.4589 6.14381H20.521V24.9436H25.19V15.2699C25.19 14.4403 25.2731 13.7268 25.4558 13.1128C25.6386 12.5155 25.9045 12.0177 26.2534 11.6195C26.6355 11.2212 27.0842 10.9392 27.6159 10.7566C28.1642 10.5575 28.7789 10.458 29.4768 10.458H30.9722V6.11062Z" fill="#030712"/>
<path d="M14.1407 6.77434C13.0274 6.07743 11.6816 5.72898 10.1363 5.72898C8.92338 5.72898 7.81014 5.97788 6.79659 6.47566L6.61382 6.57522C5.71658 7.03982 4.9855 7.70354 4.40395 8.56637L4.07164 6.14381H0.166992V31H4.81934V22.9193C5.18489 23.417 5.61689 23.8485 6.09874 24.2135C6.66367 24.5951 7.29506 24.8938 8.02614 25.0763L8.29199 25.1427C8.94 25.292 9.63785 25.3584 10.3855 25.3584C11.7979 25.3584 13.044 25.01 14.1407 24.3131C15.2539 23.6162 16.1179 22.5376 16.7327 21.0774L16.849 20.8119C17.3973 19.4016 17.6632 17.6593 17.6632 15.5852C17.6632 13.3285 17.3475 11.4701 16.7327 10.01C16.1345 8.56637 15.2705 7.47124 14.1407 6.77434ZM4.81934 15.3363C4.81934 14.1084 4.96888 13.0962 5.23473 12.2832C5.53381 11.4535 5.96582 10.8396 6.53074 10.4082C7.1289 9.99336 7.8766 9.77765 8.80707 9.77765C9.83724 9.77765 10.6182 9.99336 11.1831 10.375H11.1997C11.7813 10.7566 12.1966 11.3374 12.4459 12.167C12.7283 12.9967 12.8613 14.042 12.8613 15.3363V15.8341C12.8613 17.0122 12.745 18.0077 12.4957 18.8042L12.4459 18.9535C12.1966 19.7666 11.7813 20.3473 11.1997 20.7456C10.6348 21.1106 9.83724 21.3097 8.80707 21.3097C8.10922 21.3097 7.51106 21.177 6.99598 20.9447C6.51413 20.6958 6.11536 20.3473 5.78304 19.8827C5.46735 19.4181 5.23473 18.854 5.06858 18.1571C4.90242 17.4602 4.81934 16.6471 4.81934 15.7511V15.3363Z" fill="#030712"/>
<rect x="157.667" width="70" height="32" rx="16" fill="#030712"/>
<path d="M175.043 21V10.024H179.139C180.291 10.024 181.272 10.216 182.083 10.6C182.894 10.984 183.512 11.5813 183.939 12.392C184.376 13.192 184.595 14.232 184.595 15.512C184.595 16.7707 184.376 17.8053 183.939 18.616C183.512 19.4267 182.894 20.0293 182.083 20.424C181.272 20.808 180.291 21 179.139 21H175.043ZM176.563 19.688H179.107C179.715 19.688 180.259 19.6133 180.739 19.464C181.219 19.304 181.63 19.064 181.971 18.744C182.312 18.424 182.568 18.0133 182.739 17.512C182.92 17 183.011 16.392 183.011 15.688V15.368C183.011 14.6427 182.92 14.0293 182.739 13.528C182.568 13.016 182.312 12.6 181.971 12.28C181.64 11.96 181.235 11.7253 180.755 11.576C180.275 11.416 179.726 11.336 179.107 11.336H176.563V19.688ZM189.977 21.192C189.124 21.192 188.404 21.0373 187.817 20.728C187.241 20.408 186.798 19.9227 186.489 19.272C186.19 18.6213 186.041 17.7947 186.041 16.792C186.041 15.7787 186.19 14.952 186.489 14.312C186.798 13.6613 187.241 13.1813 187.817 12.872C188.404 12.552 189.124 12.392 189.977 12.392C190.83 12.392 191.545 12.552 192.121 12.872C192.708 13.1813 193.15 13.6613 193.449 14.312C193.748 14.952 193.897 15.7787 193.897 16.792C193.897 17.7947 193.748 18.6213 193.449 19.272C193.15 19.9227 192.708 20.408 192.121 20.728C191.545 21.0373 190.83 21.192 189.977 21.192ZM189.977 20.008C190.521 20.008 190.974 19.9013 191.337 19.688C191.7 19.4747 191.972 19.144 192.153 18.696C192.345 18.2373 192.441 17.6613 192.441 16.968V16.616C192.441 15.912 192.345 15.336 192.153 14.888C191.972 14.44 191.7 14.1093 191.337 13.896C190.974 13.6827 190.521 13.576 189.977 13.576C189.433 13.576 188.974 13.6827 188.601 13.896C188.238 14.1093 187.966 14.44 187.785 14.888C187.604 15.336 187.513 15.912 187.513 16.616V16.968C187.513 17.6613 187.604 18.2373 187.785 18.696C187.966 19.144 188.238 19.4747 188.601 19.688C188.974 19.9013 189.433 20.008 189.977 20.008ZM198.846 21.192C198.035 21.192 197.353 21.0373 196.798 20.728C196.254 20.408 195.838 19.9227 195.55 19.272C195.273 18.6107 195.134 17.784 195.134 16.792C195.134 15.8 195.273 14.9787 195.55 14.328C195.838 13.6773 196.259 13.192 196.814 12.872C197.379 12.552 198.073 12.392 198.894 12.392C199.47 12.392 199.966 12.4667 200.382 12.616C200.809 12.7653 201.161 12.984 201.438 13.272C201.715 13.56 201.918 13.9067 202.046 14.312C202.185 14.7173 202.254 15.1813 202.254 15.704H200.83C200.83 15.2133 200.761 14.8133 200.622 14.504C200.494 14.184 200.286 13.9493 199.998 13.8C199.71 13.64 199.331 13.56 198.862 13.56C198.393 13.56 197.987 13.6667 197.646 13.88C197.305 14.0827 197.043 14.408 196.862 14.856C196.681 15.304 196.59 15.896 196.59 16.632V16.968C196.59 17.6613 196.675 18.2373 196.846 18.696C197.027 19.1547 197.289 19.4907 197.63 19.704C197.971 19.9173 198.387 20.024 198.878 20.024C199.358 20.024 199.742 19.9387 200.03 19.768C200.329 19.5973 200.542 19.352 200.67 19.032C200.809 18.712 200.878 18.328 200.878 17.88H202.254C202.254 18.3493 202.185 18.7867 202.046 19.192C201.918 19.5973 201.715 19.9493 201.438 20.248C201.161 20.5467 200.809 20.7813 200.382 20.952C199.955 21.112 199.443 21.192 198.846 21.192ZM206.887 21.192C206.311 21.192 205.804 21.1333 205.367 21.016C204.93 20.8987 204.567 20.728 204.279 20.504C203.991 20.28 203.772 20.0133 203.623 19.704C203.474 19.3947 203.399 19.0427 203.399 18.648C203.399 18.5947 203.399 18.5467 203.399 18.504C203.399 18.4507 203.404 18.408 203.415 18.376H204.807C204.796 18.4187 204.791 18.456 204.791 18.488C204.791 18.52 204.791 18.552 204.791 18.584C204.802 18.9573 204.898 19.2507 205.079 19.464C205.271 19.6773 205.532 19.8267 205.863 19.912C206.194 19.9973 206.562 20.04 206.967 20.04C207.319 20.04 207.644 19.9973 207.943 19.912C208.242 19.816 208.476 19.6773 208.647 19.496C208.828 19.304 208.919 19.064 208.919 18.776C208.919 18.424 208.802 18.1573 208.567 17.976C208.343 17.784 208.044 17.6347 207.671 17.528C207.298 17.4213 206.908 17.3093 206.503 17.192C206.162 17.096 205.82 16.9893 205.479 16.872C205.138 16.7547 204.828 16.6107 204.551 16.44C204.284 16.2693 204.066 16.0507 203.895 15.784C203.735 15.5067 203.655 15.16 203.655 14.744C203.655 14.3707 203.73 14.04 203.879 13.752C204.039 13.464 204.263 13.2187 204.551 13.016C204.839 12.8133 205.186 12.664 205.591 12.568C206.007 12.4613 206.466 12.408 206.967 12.408C207.5 12.408 207.964 12.4667 208.359 12.584C208.764 12.7013 209.1 12.8667 209.367 13.08C209.634 13.2933 209.831 13.5387 209.959 13.816C210.087 14.0827 210.151 14.3707 210.151 14.68C210.151 14.744 210.151 14.808 210.151 14.872C210.151 14.9253 210.146 14.968 210.135 15H208.759V14.824C208.759 14.6107 208.7 14.408 208.583 14.216C208.476 14.0133 208.284 13.8533 208.007 13.736C207.74 13.608 207.367 13.544 206.887 13.544C206.578 13.544 206.311 13.5707 206.087 13.624C205.863 13.6667 205.676 13.7413 205.527 13.848C205.378 13.944 205.266 14.0613 205.191 14.2C205.116 14.328 205.079 14.4773 205.079 14.648C205.079 14.9253 205.17 15.1387 205.351 15.288C205.532 15.4373 205.772 15.56 206.071 15.656C206.38 15.752 206.711 15.8587 207.063 15.976C207.436 16.0827 207.815 16.1947 208.199 16.312C208.594 16.4187 208.951 16.5573 209.271 16.728C209.602 16.8987 209.863 17.1333 210.055 17.432C210.258 17.72 210.359 18.104 210.359 18.584C210.359 19.032 210.274 19.4213 210.103 19.752C209.932 20.0827 209.687 20.3547 209.367 20.568C209.058 20.7813 208.69 20.936 208.263 21.032C207.847 21.1387 207.388 21.192 206.887 21.192Z" fill="#F9FAFB"/>
</svg>
