<svg width="397" height="130" viewBox="0 0 397 130" fill="none" xmlns="http://www.w3.org/2000/svg">
<mask id="path-1-outside-1_25857_10907" maskUnits="userSpaceOnUse" x="0" y="0" width="128" height="130" fill="black">
<rect fill="white" width="128" height="130"/>
<path d="M126.953 50.5026C126.953 16.0259 101.865 1 78.4462 1H49.8899C26.4394 1 1 14.2537 1 48.7304C1 83.2072 30.0968 96.9733 53.5159 96.9733H74.5055L105.969 128.968L126.979 129L126.953 50.5026C126.953 50.6947 126.953 50.3104 126.953 50.5026ZM105.927 100.518L85.0002 75.6222H53.5159C38.288 75.6222 22.1575 68.0906 22.1575 48.7304C22.1575 29.3703 35.8794 22.1643 51.1126 22.1643H77.2708C92.4988 22.1643 105.979 30.5873 105.979 49.9475L105.922 100.518H105.927Z"/>
</mask>
<path d="M126.953 50.5026C126.953 16.0259 101.865 1 78.4462 1H49.8899C26.4394 1 1 14.2537 1 48.7304C1 83.2072 30.0968 96.9733 53.5159 96.9733H74.5055L105.969 128.968L126.979 129L126.953 50.5026C126.953 50.6947 126.953 50.3104 126.953 50.5026ZM105.927 100.518L85.0002 75.6222H53.5159C38.288 75.6222 22.1575 68.0906 22.1575 48.7304C22.1575 29.3703 35.8794 22.1643 51.1126 22.1643H77.2708C92.4988 22.1643 105.979 30.5873 105.979 49.9475L105.922 100.518H105.927Z" fill="white"/>
<path d="M74.5055 96.9733L75.0759 96.4124L74.8408 96.1733H74.5055V96.9733ZM105.969 128.968L105.398 129.529L105.633 129.767L105.968 129.768L105.969 128.968ZM126.979 129L126.978 129.8L127.78 129.801L127.779 129L126.979 129ZM105.927 100.518V101.318H107.644L106.539 100.003L105.927 100.518ZM85.0002 75.6222L85.6126 75.1074L85.3729 74.8222H85.0002V75.6222ZM105.979 49.9475L106.779 49.9484V49.9475H105.979ZM105.922 100.518L105.122 100.517L105.121 101.318H105.922V100.518ZM127.753 50.5026C127.753 33.0525 121.395 20.4508 112.009 12.221C102.641 4.00692 90.3171 0.2 78.4462 0.2V1.8C89.9945 1.8 101.924 5.50601 110.954 13.424C119.967 21.3263 126.153 33.4759 126.153 50.5026H127.753ZM78.4462 0.2H49.8899V1.8H78.4462V0.2ZM49.8899 0.2C38.0272 0.2 25.6107 3.55058 16.1436 11.318C6.65147 19.1058 0.2 31.2736 0.2 48.7304H1.8C1.8 31.7105 8.0682 20.0131 17.1584 12.5549C26.2736 5.07628 38.3021 1.8 49.8899 1.8V0.2ZM0.2 48.7304C0.2 66.2263 7.59711 78.5198 17.9918 86.4176C28.3582 94.294 41.6667 97.7733 53.5159 97.7733V96.1733C41.946 96.1733 28.9965 92.7696 18.9598 85.1437C8.95128 77.5392 1.8 65.7113 1.8 48.7304H0.2ZM53.5159 97.7733H74.5055V96.1733H53.5159V97.7733ZM73.9351 97.5342L105.398 129.529L106.539 128.407L75.0759 96.4124L73.9351 97.5342ZM105.968 129.768L126.978 129.8L126.981 128.2L105.97 128.168L105.968 129.768ZM127.779 129L127.753 50.5023L126.153 50.5028L126.179 129L127.779 129ZM127.753 50.5026C127.753 50.5022 127.753 50.5018 127.753 50.5015C127.753 50.5011 127.753 50.5007 127.753 50.5004C127.753 50.5 127.753 50.4996 127.753 50.4993C127.753 50.4989 127.753 50.4985 127.753 50.4982C127.753 50.4978 127.753 50.4975 127.753 50.4971C127.753 50.4968 127.753 50.4964 127.753 50.4961C127.753 50.4957 127.753 50.4954 127.753 50.495C127.753 50.4947 127.753 50.4943 127.753 50.494C127.753 50.4937 127.753 50.4933 127.753 50.493C127.753 50.4926 127.753 50.4923 127.753 50.492C127.753 50.4916 127.753 50.4913 127.753 50.491C127.753 50.4907 127.753 50.4903 127.753 50.49C127.753 50.4897 127.753 50.4894 127.753 50.489C127.753 50.4887 127.753 50.4884 127.753 50.4881C127.753 50.4878 127.753 50.4875 127.753 50.4871C127.753 50.4868 127.753 50.4865 127.753 50.4862C127.753 50.4859 127.753 50.4856 127.753 50.4853C127.753 50.485 127.753 50.4847 127.753 50.4844C127.753 50.4841 127.753 50.4838 127.753 50.4835C127.753 50.4832 127.753 50.4829 127.753 50.4826C127.753 50.4823 127.753 50.4821 127.753 50.4818C127.753 50.4815 127.753 50.4812 127.753 50.4809C127.753 50.4806 127.753 50.4804 127.753 50.4801C127.753 50.4798 127.753 50.4795 127.753 50.4792C127.753 50.479 127.753 50.4787 127.753 50.4784C127.753 50.4782 127.753 50.4779 127.753 50.4776C127.753 50.4774 127.753 50.4771 127.753 50.4768C127.753 50.4766 127.753 50.4763 127.753 50.476C127.753 50.4758 127.753 50.4755 127.753 50.4753C127.753 50.475 127.753 50.4748 127.753 50.4745C127.753 50.4743 127.753 50.474 127.753 50.4738C127.753 50.4735 127.753 50.4733 127.753 50.473C127.753 50.4728 127.753 50.4725 127.753 50.4723C127.753 50.4721 127.753 50.4718 127.753 50.4716C127.753 50.4714 127.753 50.4711 127.753 50.4709C127.753 50.4707 127.753 50.4704 127.753 50.4702C127.753 50.47 127.753 50.4697 127.753 50.4695C127.753 50.4693 127.753 50.4691 127.753 50.4689C127.753 50.4686 127.753 50.4684 127.753 50.4682C127.753 50.468 127.753 50.4678 127.753 50.4676C127.753 50.4673 127.753 50.4671 127.753 50.4669C127.753 50.4667 127.753 50.4665 127.753 50.4663C127.753 50.4661 127.753 50.4659 127.753 50.4657C127.753 50.4655 127.753 50.4653 127.753 50.4651C127.753 50.4649 127.753 50.4647 127.753 50.4645C127.753 50.4643 127.753 50.4641 127.753 50.4639C127.753 50.4637 127.753 50.4635 127.753 50.4633C127.753 50.4632 127.753 50.463 127.753 50.4628C127.753 50.4626 127.753 50.4624 127.753 50.4622C127.753 50.4621 127.753 50.4619 127.753 50.4617C127.753 50.4615 127.753 50.4614 127.753 50.4612C127.753 50.461 127.753 50.4608 127.753 50.4607C127.753 50.4605 127.753 50.4603 127.753 50.4602C127.753 50.46 127.753 50.4598 127.753 50.4597C127.753 50.4595 127.753 50.4593 127.753 50.4592C127.753 50.459 127.753 50.4589 127.753 50.4587C127.753 50.4586 127.753 50.4584 127.753 50.4582C127.753 50.4581 127.753 50.4579 127.753 50.4578C127.753 50.4576 127.753 50.4575 127.753 50.4574C127.753 50.4572 127.753 50.4571 127.753 50.4569C127.753 50.4568 127.753 50.4566 127.753 50.4565C127.753 50.4564 127.753 50.4562 127.753 50.4561C127.753 50.456 127.753 50.4558 127.753 50.4557C127.753 50.4556 127.753 50.4554 127.753 50.4553C127.753 50.4552 127.753 50.455 127.753 50.4549C127.753 50.4548 127.753 50.4547 127.753 50.4545C127.753 50.4544 127.753 50.4543 127.753 50.4542C127.753 50.4541 127.753 50.4539 127.753 50.4538C127.753 50.4537 127.753 50.4536 127.753 50.4535C127.753 50.4534 127.753 50.4533 127.753 50.4531C127.753 50.453 127.753 50.4529 127.753 50.4528C127.753 50.4527 127.753 50.4526 127.753 50.4525C127.753 50.4524 127.753 50.4523 127.753 50.4522C127.753 50.4521 127.753 50.452 127.753 50.4519C127.753 50.4518 127.753 50.4517 127.753 50.4516C127.753 50.4515 127.753 50.4514 127.753 50.4513C127.753 50.4513 127.753 50.4512 127.753 50.4511C127.753 50.451 127.753 50.4509 127.753 50.4508C127.753 50.4507 127.753 50.4507 127.753 50.4506C127.753 50.4505 127.753 50.4504 127.753 50.4503C127.753 50.4503 127.753 50.4502 127.753 50.4501C127.753 50.45 127.753 50.45 127.753 50.4499C127.753 50.4498 127.753 50.4497 127.753 50.4497C127.753 50.4496 127.753 50.4495 127.753 50.4495C127.753 50.4494 127.753 50.4493 127.753 50.4493C127.753 50.4492 127.753 50.4491 127.753 50.4491C127.753 50.449 127.753 50.449 127.753 50.4489C127.753 50.4488 127.753 50.4488 127.753 50.4487C127.753 50.4487 127.753 50.4486 127.753 50.4486C127.753 50.4485 127.753 50.4485 127.753 50.4484C127.753 50.4484 127.753 50.4483 127.753 50.4483C127.753 50.4482 127.753 50.4482 127.753 50.4481C127.753 50.4481 127.753 50.4481 127.753 50.448C127.753 50.448 127.753 50.4479 127.753 50.4479C127.753 50.4479 127.753 50.4478 127.753 50.4478C127.753 50.4478 127.753 50.4477 127.753 50.4477C127.753 50.4477 127.753 50.4476 127.753 50.4476C127.753 50.4476 127.753 50.4475 127.753 50.4475C127.753 50.4475 127.753 50.4475 127.753 50.4474C127.753 50.4474 127.753 50.4474 127.753 50.4474C127.753 50.4473 127.753 50.4473 127.753 50.4473C127.753 50.4473 127.753 50.4473 127.753 50.4473C127.753 50.4472 127.753 50.4472 127.753 50.4472C127.753 50.4472 127.753 50.4472 127.753 50.4472C127.753 50.4472 127.753 50.4472 127.753 50.4472C127.753 50.4471 127.753 50.4471 127.753 50.4471C127.753 50.4471 127.753 50.4471 127.753 50.4471C127.753 50.4471 127.753 50.4471 127.753 50.4471C126.953 50.4471 126.153 50.4471 126.153 50.4471C126.153 50.4471 126.153 50.4471 126.153 50.4471C126.153 50.4471 126.153 50.4471 126.153 50.4471C126.153 50.4471 126.153 50.4472 126.153 50.4472C126.153 50.4472 126.153 50.4472 126.153 50.4472C126.153 50.4472 126.153 50.4472 126.153 50.4472C126.153 50.4473 126.153 50.4473 126.153 50.4473C126.153 50.4473 126.153 50.4473 126.153 50.4473C126.153 50.4474 126.153 50.4474 126.153 50.4474C126.153 50.4474 126.153 50.4474 126.153 50.4475C126.153 50.4475 126.153 50.4475 126.153 50.4475C126.153 50.4476 126.153 50.4476 126.153 50.4476C126.153 50.4477 126.153 50.4477 126.153 50.4477C126.153 50.4477 126.153 50.4478 126.153 50.4478C126.153 50.4478 126.153 50.4479 126.153 50.4479C126.153 50.448 126.153 50.448 126.153 50.448C126.153 50.4481 126.153 50.4481 126.153 50.4481C126.153 50.4482 126.153 50.4482 126.153 50.4483C126.153 50.4483 126.153 50.4484 126.153 50.4484C126.153 50.4484 126.153 50.4485 126.153 50.4485C126.153 50.4486 126.153 50.4486 126.153 50.4487C126.153 50.4487 126.153 50.4488 126.153 50.4488C126.153 50.4489 126.153 50.4489 126.153 50.449C126.153 50.449 126.153 50.4491 126.153 50.4492C126.153 50.4492 126.153 50.4493 126.153 50.4493C126.153 50.4494 126.153 50.4494 126.153 50.4495C126.153 50.4496 126.153 50.4496 126.153 50.4497C126.153 50.4497 126.153 50.4498 126.153 50.4499C126.153 50.4499 126.153 50.45 126.153 50.4501C126.153 50.4501 126.153 50.4502 126.153 50.4503C126.153 50.4503 126.153 50.4504 126.153 50.4505C126.153 50.4505 126.153 50.4506 126.153 50.4507C126.153 50.4508 126.153 50.4508 126.153 50.4509C126.153 50.451 126.153 50.4511 126.153 50.4511C126.153 50.4512 126.153 50.4513 126.153 50.4514C126.153 50.4514 126.153 50.4515 126.153 50.4516C126.153 50.4517 126.153 50.4518 126.153 50.4518C126.153 50.4519 126.153 50.452 126.153 50.4521C126.153 50.4522 126.153 50.4523 126.153 50.4523C126.153 50.4524 126.153 50.4525 126.153 50.4526C126.153 50.4527 126.153 50.4528 126.153 50.4529C126.153 50.453 126.153 50.453 126.153 50.4531C126.153 50.4532 126.153 50.4533 126.153 50.4534C126.153 50.4535 126.153 50.4536 126.153 50.4537C126.153 50.4538 126.153 50.4539 126.153 50.454C126.153 50.4541 126.153 50.4542 126.153 50.4543C126.153 50.4544 126.153 50.4545 126.153 50.4546C126.153 50.4547 126.153 50.4548 126.153 50.4549C126.153 50.455 126.153 50.4551 126.153 50.4552C126.153 50.4553 126.153 50.4554 126.153 50.4555C126.153 50.4556 126.153 50.4557 126.153 50.4558C126.153 50.4559 126.153 50.456 126.153 50.4561C126.153 50.4562 126.153 50.4564 126.153 50.4565C126.153 50.4566 126.153 50.4567 126.153 50.4568C126.153 50.4569 126.153 50.457 126.153 50.4571C126.153 50.4572 126.153 50.4574 126.153 50.4575C126.153 50.4576 126.153 50.4577 126.153 50.4578C126.153 50.4579 126.153 50.4581 126.153 50.4582C126.153 50.4583 126.153 50.4584 126.153 50.4585C126.153 50.4587 126.153 50.4588 126.153 50.4589C126.153 50.459 126.153 50.4591 126.153 50.4593C126.153 50.4594 126.153 50.4595 126.153 50.4596C126.153 50.4598 126.153 50.4599 126.153 50.46C126.153 50.4601 126.153 50.4603 126.153 50.4604C126.153 50.4605 126.153 50.4606 126.153 50.4608C126.153 50.4609 126.153 50.461 126.153 50.4612C126.153 50.4613 126.153 50.4614 126.153 50.4615C126.153 50.4617 126.153 50.4618 126.153 50.4619C126.153 50.4621 126.153 50.4622 126.153 50.4623C126.153 50.4625 126.153 50.4626 126.153 50.4627C126.153 50.4629 126.153 50.463 126.153 50.4632C126.153 50.4633 126.153 50.4634 126.153 50.4636C126.153 50.4637 126.153 50.4638 126.153 50.464C126.153 50.4641 126.153 50.4643 126.153 50.4644C126.153 50.4645 126.153 50.4647 126.153 50.4648C126.153 50.465 126.153 50.4651 126.153 50.4653C126.153 50.4654 126.153 50.4655 126.153 50.4657C126.153 50.4658 126.153 50.466 126.153 50.4661C126.153 50.4663 126.153 50.4664 126.153 50.4666C126.153 50.4667 126.153 50.4669 126.153 50.467C126.153 50.4672 126.153 50.4673 126.153 50.4674C126.153 50.4676 126.153 50.4677 126.153 50.4679C126.153 50.468 126.153 50.4682 126.153 50.4683C126.153 50.4685 126.153 50.4687 126.153 50.4688C126.153 50.469 126.153 50.4691 126.153 50.4693C126.153 50.4694 126.153 50.4696 126.153 50.4697C126.153 50.4699 126.153 50.47 126.153 50.4702C126.153 50.4703 126.153 50.4705 126.153 50.4707C126.153 50.4708 126.153 50.471 126.153 50.4711C126.153 50.4713 126.153 50.4714 126.153 50.4716C126.153 50.4718 126.153 50.4719 126.153 50.4721C126.153 50.4722 126.153 50.4724 126.153 50.4726C126.153 50.4727 126.153 50.4729 126.153 50.473C126.153 50.4732 126.153 50.4734 126.153 50.4735C126.153 50.4737 126.153 50.4739 126.153 50.474C126.153 50.4742 126.153 50.4743 126.153 50.4745C126.153 50.4747 126.153 50.4748 126.153 50.475C126.153 50.4752 126.153 50.4753 126.153 50.4755C126.153 50.4757 126.153 50.4758 126.153 50.476C126.153 50.4762 126.153 50.4763 126.153 50.4765C126.153 50.4767 126.153 50.4768 126.153 50.477C126.153 50.4772 126.153 50.4774 126.153 50.4775C126.153 50.4777 126.153 50.4779 126.153 50.478C126.153 50.4782 126.153 50.4784 126.153 50.4785C126.153 50.4787 126.153 50.4789 126.153 50.4791C126.153 50.4792 126.153 50.4794 126.153 50.4796C126.153 50.4797 126.153 50.4799 126.153 50.4801C126.153 50.4803 126.153 50.4804 126.153 50.4806C126.153 50.4808 126.153 50.481 126.153 50.4811C126.153 50.4813 126.153 50.4815 126.153 50.4817C126.153 50.4818 126.153 50.482 126.153 50.4822C126.153 50.4824 126.153 50.4825 126.153 50.4827C126.153 50.4829 126.153 50.4831 126.153 50.4832C126.153 50.4834 126.153 50.4836 126.153 50.4838C126.153 50.484 126.153 50.4841 126.153 50.4843C126.153 50.4845 126.153 50.4847 126.153 50.4848C126.153 50.485 126.153 50.4852 126.153 50.4854C126.153 50.4856 126.153 50.4857 126.153 50.4859C126.153 50.4861 126.153 50.4863 126.153 50.4865C126.153 50.4866 126.153 50.4868 126.153 50.487C126.153 50.4872 126.153 50.4874 126.153 50.4876C126.153 50.4877 126.153 50.4879 126.153 50.4881C126.153 50.4883 126.153 50.4885 126.153 50.4886C126.153 50.4888 126.153 50.489 126.153 50.4892C126.153 50.4894 126.153 50.4896 126.153 50.4897C126.153 50.4899 126.153 50.4901 126.153 50.4903C126.153 50.4905 126.153 50.4907 126.153 50.4908C126.153 50.491 126.153 50.4912 126.153 50.4914C126.153 50.4916 126.153 50.4918 126.153 50.4919C126.153 50.4921 126.153 50.4923 126.153 50.4925C126.153 50.4927 126.153 50.4929 126.153 50.4931C126.153 50.4932 126.153 50.4934 126.153 50.4936C126.153 50.4938 126.153 50.494 126.153 50.4942C126.153 50.4944 126.153 50.4945 126.153 50.4947C126.153 50.4949 126.153 50.4951 126.153 50.4953C126.153 50.4955 126.153 50.4957 126.153 50.4958C126.153 50.496 126.153 50.4962 126.153 50.4964C126.153 50.4966 126.153 50.4968 126.153 50.497C126.153 50.4971 126.153 50.4973 126.153 50.4975C126.153 50.4977 126.153 50.4979 126.153 50.4981C126.153 50.4983 126.153 50.4985 126.153 50.4986C126.153 50.4988 126.153 50.499 126.153 50.4992C126.153 50.4994 126.153 50.4996 126.153 50.4998C126.153 50.5 126.153 50.5001 126.153 50.5003C126.153 50.5005 126.153 50.5007 126.153 50.5009C126.153 50.5011 126.153 50.5013 126.153 50.5015C126.153 50.5016 126.153 50.5018 126.153 50.502C126.153 50.5022 126.153 50.5024 126.153 50.5026C126.153 50.5028 126.153 50.503 126.153 50.5031C126.153 50.5033 126.153 50.5035 126.153 50.5037C126.153 50.5039 126.153 50.5041 126.153 50.5043C126.153 50.5045 126.153 50.5046 126.153 50.5048C126.153 50.505 126.153 50.5052 126.153 50.5054C126.153 50.5056 126.153 50.5058 126.153 50.506C126.153 50.5061 126.153 50.5063 126.153 50.5065C126.153 50.5067 126.153 50.5069 126.153 50.5071C126.153 50.5073 126.153 50.5075 126.153 50.5076C126.153 50.5078 126.153 50.508 126.153 50.5082C126.153 50.5084 126.153 50.5086 126.153 50.5088C126.153 50.5089 126.153 50.5091 126.153 50.5093C126.153 50.5095 126.153 50.5097 126.153 50.5099C126.153 50.5101 126.153 50.5103 126.153 50.5104C126.153 50.5106 126.153 50.5108 126.153 50.511C126.153 50.5112 126.153 50.5114 126.153 50.5116C126.153 50.5117 126.153 50.5119 126.153 50.5121C126.153 50.5123 126.153 50.5125 126.153 50.5127C126.153 50.5129 126.153 50.513 126.153 50.5132C126.153 50.5134 126.153 50.5136 126.153 50.5138C126.153 50.514 126.153 50.5141 126.153 50.5143C126.153 50.5145 126.153 50.5147 126.153 50.5149C126.153 50.5151 126.153 50.5152 126.153 50.5154C126.153 50.5156 126.153 50.5158 126.153 50.516C126.153 50.5162 126.153 50.5163 126.153 50.5165C126.153 50.5167 126.153 50.5169 126.153 50.5171C126.153 50.5173 126.153 50.5174 126.153 50.5176C126.153 50.5178 126.153 50.518 126.153 50.5182C126.153 50.5183 126.153 50.5185 126.153 50.5187C126.153 50.5189 126.153 50.5191 126.153 50.5192C126.153 50.5194 126.153 50.5196 126.153 50.5198C126.153 50.52 126.153 50.5201 126.153 50.5203C126.153 50.5205 126.153 50.5207 126.153 50.5209C126.153 50.521 126.153 50.5212 126.153 50.5214C126.153 50.5216 126.153 50.5217 126.153 50.5219C126.153 50.5221 126.153 50.5223 126.153 50.5224C126.153 50.5226 126.153 50.5228 126.153 50.523C126.153 50.5232 126.153 50.5233 126.153 50.5235C126.153 50.5237 126.153 50.5239 126.153 50.524C126.153 50.5242 126.153 50.5244 126.153 50.5246C126.153 50.5247 126.153 50.5249 126.153 50.5251C126.153 50.5252 126.153 50.5254 126.153 50.5256C126.153 50.5258 126.153 50.5259 126.153 50.5261C126.153 50.5263 126.153 50.5265 126.153 50.5266C126.153 50.5268 126.153 50.527 126.153 50.5271C126.153 50.5273 126.153 50.5275 126.153 50.5276C126.153 50.5278 126.153 50.528 126.153 50.5281C126.153 50.5283 126.153 50.5285 126.153 50.5287C126.153 50.5288 126.153 50.529 126.153 50.5292C126.153 50.5293 126.153 50.5295 126.153 50.5297C126.153 50.5298 126.153 50.53 126.153 50.5302C126.153 50.5303 126.153 50.5305 126.153 50.5307C126.153 50.5308 126.153 50.531 126.153 50.5311C126.153 50.5313 126.153 50.5315 126.153 50.5316C126.153 50.5318 126.153 50.532 126.153 50.5321C126.153 50.5323 126.153 50.5324 126.153 50.5326C126.153 50.5328 126.153 50.5329 126.153 50.5331C126.153 50.5332 126.153 50.5334 126.153 50.5336C126.153 50.5337 126.153 50.5339 126.153 50.534C126.153 50.5342 126.153 50.5343 126.153 50.5345C126.153 50.5347 126.153 50.5348 126.153 50.535C126.153 50.5351 126.153 50.5353 126.153 50.5354C126.153 50.5356 126.153 50.5357 126.153 50.5359C126.153 50.5361 126.153 50.5362 126.153 50.5364C126.153 50.5365 126.153 50.5367 126.153 50.5368C126.153 50.537 126.153 50.5371 126.153 50.5373C126.153 50.5374 126.153 50.5376 126.153 50.5377C126.153 50.5379 126.153 50.538 126.153 50.5382C126.153 50.5383 126.153 50.5385 126.153 50.5386C126.153 50.5388 126.153 50.5389 126.153 50.539C126.153 50.5392 126.153 50.5393 126.153 50.5395C126.153 50.5396 126.153 50.5398 126.153 50.5399C126.153 50.5401 126.153 50.5402 126.153 50.5403C126.153 50.5405 126.153 50.5406 126.153 50.5408C126.153 50.5409 126.153 50.541 126.153 50.5412C126.153 50.5413 126.153 50.5415 126.153 50.5416C126.153 50.5417 126.153 50.5419 126.153 50.542C126.153 50.5421 126.153 50.5423 126.153 50.5424C126.153 50.5426 126.153 50.5427 126.153 50.5428C126.153 50.543 126.153 50.5431 126.153 50.5432C126.153 50.5434 126.153 50.5435 126.153 50.5436C126.153 50.5438 126.153 50.5439 126.153 50.544C126.153 50.5441 126.153 50.5443 126.153 50.5444C126.153 50.5445 126.153 50.5447 126.153 50.5448C126.153 50.5449 126.153 50.545 126.153 50.5452C126.153 50.5453 126.153 50.5454 126.153 50.5455C126.153 50.5457 126.153 50.5458 126.153 50.5459C126.153 50.546 126.153 50.5462 126.153 50.5463C126.153 50.5464 126.153 50.5465 126.153 50.5466C126.153 50.5467 126.153 50.5469 126.153 50.547C126.153 50.5471 126.153 50.5472 126.153 50.5473C126.153 50.5475 126.153 50.5476 126.153 50.5477C126.153 50.5478 126.153 50.5479 126.153 50.548C126.153 50.5481 126.153 50.5483 126.153 50.5484C126.153 50.5485 126.153 50.5486 126.153 50.5487C126.153 50.5488 126.153 50.5489 126.153 50.549C126.153 50.5491 126.153 50.5492 126.153 50.5494C126.153 50.5495 126.153 50.5496 126.153 50.5497C126.153 50.5498 126.153 50.5499 126.153 50.55C126.153 50.5501 126.153 50.5502 126.153 50.5503C126.153 50.5504 126.153 50.5505 126.153 50.5506C126.153 50.5507 126.153 50.5508 126.153 50.5509C126.153 50.551 126.153 50.5511 126.153 50.5512C126.153 50.5513 126.153 50.5514 126.153 50.5515C126.153 50.5516 126.153 50.5517 126.153 50.5518C126.153 50.5518 126.153 50.5519 126.153 50.552C126.153 50.5521 126.153 50.5522 126.153 50.5523C126.153 50.5524 126.153 50.5525 126.153 50.5526C126.153 50.5527 126.153 50.5527 126.153 50.5528C126.153 50.5529 126.153 50.553 126.153 50.5531C126.153 50.5532 126.153 50.5532 126.153 50.5533C126.153 50.5534 126.153 50.5535 126.153 50.5536C126.153 50.5536 126.153 50.5537 126.153 50.5538C126.153 50.5539 126.153 50.554 126.153 50.554C126.153 50.5541 126.153 50.5542 126.153 50.5543C126.153 50.5543 126.153 50.5544 126.153 50.5545C126.153 50.5546 126.153 50.5546 126.153 50.5547C126.153 50.5548 126.153 50.5548 126.153 50.5549C126.153 50.555 126.153 50.555 126.153 50.5551C126.153 50.5552 126.153 50.5552 126.153 50.5553C126.153 50.5554 126.153 50.5554 126.153 50.5555C126.153 50.5555 126.153 50.5556 126.153 50.5557C126.153 50.5557 126.153 50.5558 126.153 50.5558C126.153 50.5559 126.153 50.556 126.153 50.556C126.153 50.5561 126.153 50.5561 126.153 50.5562C126.153 50.5562 126.153 50.5563 126.153 50.5563C126.153 50.5564 126.153 50.5564 126.153 50.5565C126.153 50.5565 126.153 50.5566 126.153 50.5566C126.153 50.5567 126.153 50.5567 126.153 50.5568C126.153 50.5568 126.153 50.5569 126.153 50.5569C126.153 50.5569 126.153 50.557 126.153 50.557C126.153 50.5571 126.153 50.5571 126.153 50.5571C126.153 50.5572 126.153 50.5572 126.153 50.5572C126.153 50.5573 126.153 50.5573 126.153 50.5574C126.153 50.5574 126.153 50.5574 126.153 50.5574C126.153 50.5575 126.153 50.5575 126.153 50.5575C126.153 50.5576 126.153 50.5576 126.153 50.5576C126.153 50.5576 126.153 50.5577 126.153 50.5577C126.153 50.5577 126.153 50.5577 126.153 50.5578C126.153 50.5578 126.153 50.5578 126.153 50.5578C126.153 50.5578 126.153 50.5579 126.153 50.5579C126.153 50.5579 126.153 50.5579 126.153 50.5579C126.153 50.5579 126.153 50.558 126.153 50.558C126.153 50.558 126.153 50.558 126.153 50.558C126.153 50.558 126.153 50.558 126.153 50.558C126.153 50.558 126.153 50.558 126.153 50.558C126.153 50.558 126.153 50.558 126.153 50.5581C126.153 50.5581 126.953 50.5581 127.753 50.5581C127.753 50.5581 127.753 50.5581 127.753 50.558C127.753 50.558 127.753 50.558 127.753 50.558C127.753 50.558 127.753 50.558 127.753 50.558C127.753 50.558 127.753 50.558 127.753 50.558C127.753 50.558 127.753 50.558 127.753 50.5579C127.753 50.5579 127.753 50.5579 127.753 50.5579C127.753 50.5579 127.753 50.5579 127.753 50.5579C127.753 50.5578 127.753 50.5578 127.753 50.5578C127.753 50.5578 127.753 50.5578 127.753 50.5577C127.753 50.5577 127.753 50.5577 127.753 50.5576C127.753 50.5576 127.753 50.5576 127.753 50.5576C127.753 50.5575 127.753 50.5575 127.753 50.5575C127.753 50.5574 127.753 50.5574 127.753 50.5574C127.753 50.5573 127.753 50.5573 127.753 50.5573C127.753 50.5572 127.753 50.5572 127.753 50.5571C127.753 50.5571 127.753 50.5571 127.753 50.557C127.753 50.557 127.753 50.5569 127.753 50.5569C127.753 50.5568 127.753 50.5568 127.753 50.5567C127.753 50.5567 127.753 50.5566 127.753 50.5566C127.753 50.5565 127.753 50.5565 127.753 50.5564C127.753 50.5564 127.753 50.5563 127.753 50.5563C127.753 50.5562 127.753 50.5561 127.753 50.5561C127.753 50.556 127.753 50.556 127.753 50.5559C127.753 50.5558 127.753 50.5558 127.753 50.5557C127.753 50.5556 127.753 50.5556 127.753 50.5555C127.753 50.5554 127.753 50.5554 127.753 50.5553C127.753 50.5552 127.753 50.5551 127.753 50.5551C127.753 50.555 127.753 50.5549 127.753 50.5548C127.753 50.5548 127.753 50.5547 127.753 50.5546C127.753 50.5545 127.753 50.5544 127.753 50.5543C127.753 50.5543 127.753 50.5542 127.753 50.5541C127.753 50.554 127.753 50.5539 127.753 50.5538C127.753 50.5537 127.753 50.5536 127.753 50.5535C127.753 50.5534 127.753 50.5534 127.753 50.5533C127.753 50.5532 127.753 50.5531 127.753 50.553C127.753 50.5529 127.753 50.5528 127.753 50.5527C127.753 50.5526 127.753 50.5524 127.753 50.5523C127.753 50.5522 127.753 50.5521 127.753 50.552C127.753 50.5519 127.753 50.5518 127.753 50.5517C127.753 50.5516 127.753 50.5515 127.753 50.5513C127.753 50.5512 127.753 50.5511 127.753 50.551C127.753 50.5509 127.753 50.5508 127.753 50.5506C127.753 50.5505 127.753 50.5504 127.753 50.5503C127.753 50.5501 127.753 50.55 127.753 50.5499C127.753 50.5497 127.753 50.5496 127.753 50.5495C127.753 50.5493 127.753 50.5492 127.753 50.5491C127.753 50.5489 127.753 50.5488 127.753 50.5487C127.753 50.5485 127.753 50.5484 127.753 50.5482C127.753 50.5481 127.753 50.548 127.753 50.5478C127.753 50.5477 127.753 50.5475 127.753 50.5474C127.753 50.5472 127.753 50.5471 127.753 50.5469C127.753 50.5468 127.753 50.5466 127.753 50.5465C127.753 50.5463 127.753 50.5461 127.753 50.546C127.753 50.5458 127.753 50.5457 127.753 50.5455C127.753 50.5453 127.753 50.5452 127.753 50.545C127.753 50.5448 127.753 50.5447 127.753 50.5445C127.753 50.5443 127.753 50.5442 127.753 50.544C127.753 50.5438 127.753 50.5436 127.753 50.5435C127.753 50.5433 127.753 50.5431 127.753 50.5429C127.753 50.5427 127.753 50.5426 127.753 50.5424C127.753 50.5422 127.753 50.542 127.753 50.5418C127.753 50.5416 127.753 50.5414 127.753 50.5413C127.753 50.5411 127.753 50.5409 127.753 50.5407C127.753 50.5405 127.753 50.5403 127.753 50.5401C127.753 50.5399 127.753 50.5397 127.753 50.5395C127.753 50.5393 127.753 50.5391 127.753 50.5389C127.753 50.5387 127.753 50.5385 127.753 50.5382C127.753 50.538 127.753 50.5378 127.753 50.5376C127.753 50.5374 127.753 50.5372 127.753 50.537C127.753 50.5368 127.753 50.5365 127.753 50.5363C127.753 50.5361 127.753 50.5359 127.753 50.5356C127.753 50.5354 127.753 50.5352 127.753 50.535C127.753 50.5347 127.753 50.5345 127.753 50.5343C127.753 50.534 127.753 50.5338 127.753 50.5336C127.753 50.5333 127.753 50.5331 127.753 50.5329C127.753 50.5326 127.753 50.5324 127.753 50.5321C127.753 50.5319 127.753 50.5317 127.753 50.5314C127.753 50.5312 127.753 50.5309 127.753 50.5307C127.753 50.5304 127.753 50.5302 127.753 50.5299C127.753 50.5296 127.753 50.5294 127.753 50.5291C127.753 50.5289 127.753 50.5286 127.753 50.5283C127.753 50.5281 127.753 50.5278 127.753 50.5275C127.753 50.5273 127.753 50.527 127.753 50.5267C127.753 50.5265 127.753 50.5262 127.753 50.5259C127.753 50.5257 127.753 50.5254 127.753 50.5251C127.753 50.5248 127.753 50.5245 127.753 50.5243C127.753 50.524 127.753 50.5237 127.753 50.5234C127.753 50.5231 127.753 50.5228 127.753 50.5225C127.753 50.5222 127.753 50.5219 127.753 50.5217C127.753 50.5214 127.753 50.5211 127.753 50.5208C127.753 50.5205 127.753 50.5202 127.753 50.5199C127.753 50.5196 127.753 50.5193 127.753 50.5189C127.753 50.5186 127.753 50.5183 127.753 50.518C127.753 50.5177 127.753 50.5174 127.753 50.5171C127.753 50.5168 127.753 50.5164 127.753 50.5161C127.753 50.5158 127.753 50.5155 127.753 50.5152C127.753 50.5148 127.753 50.5145 127.753 50.5142C127.753 50.5139 127.753 50.5135 127.753 50.5132C127.753 50.5129 127.753 50.5125 127.753 50.5122C127.753 50.5119 127.753 50.5115 127.753 50.5112C127.753 50.5108 127.753 50.5105 127.753 50.5101C127.753 50.5098 127.753 50.5095 127.753 50.5091C127.753 50.5088 127.753 50.5084 127.753 50.508C127.753 50.5077 127.753 50.5073 127.753 50.507C127.753 50.5066 127.753 50.5063 127.753 50.5059C127.753 50.5055 127.753 50.5052 127.753 50.5048C127.753 50.5044 127.753 50.5041 127.753 50.5037C127.753 50.5033 127.753 50.503 127.753 50.5026H126.153C126.153 50.503 126.153 50.5033 126.153 50.5037C126.153 50.5041 126.153 50.5044 126.153 50.5048C126.153 50.5052 126.153 50.5055 126.153 50.5059C126.153 50.5063 126.153 50.5066 126.153 50.507C126.153 50.5073 126.153 50.5077 126.153 50.508C126.153 50.5084 126.153 50.5088 126.153 50.5091C126.153 50.5095 126.153 50.5098 126.153 50.5101C126.153 50.5105 126.153 50.5108 126.153 50.5112C126.153 50.5115 126.153 50.5119 126.153 50.5122C126.153 50.5125 126.153 50.5129 126.153 50.5132C126.153 50.5135 126.153 50.5139 126.153 50.5142C126.153 50.5145 126.153 50.5148 126.153 50.5152C126.153 50.5155 126.153 50.5158 126.153 50.5161C126.153 50.5164 126.153 50.5168 126.153 50.5171C126.153 50.5174 126.153 50.5177 126.153 50.518C126.153 50.5183 126.153 50.5186 126.153 50.5189C126.153 50.5193 126.153 50.5196 126.153 50.5199C126.153 50.5202 126.153 50.5205 126.153 50.5208C126.153 50.5211 126.153 50.5214 126.153 50.5217C126.153 50.5219 126.153 50.5222 126.153 50.5225C126.153 50.5228 126.153 50.5231 126.153 50.5234C126.153 50.5237 126.153 50.524 126.153 50.5243C126.153 50.5245 126.153 50.5248 126.153 50.5251C126.153 50.5254 126.153 50.5257 126.153 50.5259C126.153 50.5262 126.153 50.5265 126.153 50.5267C126.153 50.527 126.153 50.5273 126.153 50.5275C126.153 50.5278 126.153 50.5281 126.153 50.5283C126.153 50.5286 126.153 50.5289 126.153 50.5291C126.153 50.5294 126.153 50.5296 126.153 50.5299C126.153 50.5302 126.153 50.5304 126.153 50.5307C126.153 50.5309 126.153 50.5312 126.153 50.5314C126.153 50.5317 126.153 50.5319 126.153 50.5321C126.153 50.5324 126.153 50.5326 126.153 50.5329C126.153 50.5331 126.153 50.5333 126.153 50.5336C126.153 50.5338 126.153 50.534 126.153 50.5343C126.153 50.5345 126.153 50.5347 126.153 50.535C126.153 50.5352 126.153 50.5354 126.153 50.5356C126.153 50.5359 126.153 50.5361 126.153 50.5363C126.153 50.5365 126.153 50.5368 126.153 50.537C126.153 50.5372 126.153 50.5374 126.153 50.5376C126.153 50.5378 126.153 50.538 126.153 50.5382C126.153 50.5385 126.153 50.5387 126.153 50.5389C126.153 50.5391 126.153 50.5393 126.153 50.5395C126.153 50.5397 126.153 50.5399 126.153 50.5401C126.153 50.5403 126.153 50.5405 126.153 50.5407C126.153 50.5409 126.153 50.5411 126.153 50.5413C126.153 50.5414 126.153 50.5416 126.153 50.5418C126.153 50.542 126.153 50.5422 126.153 50.5424C126.153 50.5426 126.153 50.5427 126.153 50.5429C126.153 50.5431 126.153 50.5433 126.153 50.5435C126.153 50.5436 126.153 50.5438 126.153 50.544C126.153 50.5442 126.153 50.5443 126.153 50.5445C126.153 50.5447 126.153 50.5448 126.153 50.545C126.153 50.5452 126.153 50.5453 126.153 50.5455C126.153 50.5457 126.153 50.5458 126.153 50.546C126.153 50.5461 126.153 50.5463 126.153 50.5465C126.153 50.5466 126.153 50.5468 126.153 50.5469C126.153 50.5471 126.153 50.5472 126.153 50.5474C126.153 50.5475 126.153 50.5477 126.153 50.5478C126.153 50.548 126.153 50.5481 126.153 50.5482C126.153 50.5484 126.153 50.5485 126.153 50.5487C126.153 50.5488 126.153 50.5489 126.153 50.5491C126.153 50.5492 126.153 50.5493 126.153 50.5495C126.153 50.5496 126.153 50.5497 126.153 50.5499C126.153 50.55 126.153 50.5501 126.153 50.5503C126.153 50.5504 126.153 50.5505 126.153 50.5506C126.153 50.5508 126.153 50.5509 126.153 50.551C126.153 50.5511 126.153 50.5512 126.153 50.5513C126.153 50.5515 126.153 50.5516 126.153 50.5517C126.153 50.5518 126.153 50.5519 126.153 50.552C126.153 50.5521 126.153 50.5522 126.153 50.5523C126.153 50.5524 126.153 50.5526 126.153 50.5527C126.153 50.5528 126.153 50.5529 126.153 50.553C126.153 50.5531 126.153 50.5532 126.153 50.5533C126.153 50.5534 126.153 50.5534 126.153 50.5535C126.153 50.5536 126.153 50.5537 126.153 50.5538C126.153 50.5539 126.153 50.554 126.153 50.5541C126.153 50.5542 126.153 50.5543 126.153 50.5543C126.153 50.5544 126.153 50.5545 126.153 50.5546C126.153 50.5547 126.153 50.5548 126.153 50.5548C126.153 50.5549 126.153 50.555 126.153 50.5551C126.153 50.5551 126.153 50.5552 126.153 50.5553C126.153 50.5554 126.153 50.5554 126.153 50.5555C126.153 50.5556 126.153 50.5556 126.153 50.5557C126.153 50.5558 126.153 50.5558 126.153 50.5559C126.153 50.556 126.153 50.556 126.153 50.5561C126.153 50.5561 126.153 50.5562 126.153 50.5563C126.153 50.5563 126.153 50.5564 126.153 50.5564C126.153 50.5565 126.153 50.5565 126.153 50.5566C126.153 50.5566 126.153 50.5567 126.153 50.5567C126.153 50.5568 126.153 50.5568 126.153 50.5569C126.153 50.5569 126.153 50.557 126.153 50.557C126.153 50.5571 126.153 50.5571 126.153 50.5571C126.153 50.5572 126.153 50.5572 126.153 50.5573C126.153 50.5573 126.153 50.5573 126.153 50.5574C126.153 50.5574 126.153 50.5574 126.153 50.5575C126.153 50.5575 126.153 50.5575 126.153 50.5576C126.153 50.5576 126.153 50.5576 126.153 50.5576C126.153 50.5577 126.153 50.5577 126.153 50.5577C126.153 50.5578 126.153 50.5578 126.153 50.5578C126.153 50.5578 126.153 50.5578 126.153 50.5579C126.153 50.5579 126.153 50.5579 126.153 50.5579C126.153 50.5579 126.153 50.5579 126.153 50.5579C126.153 50.558 126.153 50.558 126.153 50.558C126.153 50.558 126.153 50.558 126.153 50.558C126.153 50.558 126.153 50.558 126.153 50.558C126.153 50.558 126.153 50.558 126.153 50.558C126.153 50.5581 126.153 50.5581 126.153 50.5581C126.953 50.5581 127.753 50.5581 127.753 50.5581C127.753 50.558 127.753 50.558 127.753 50.558C127.753 50.558 127.753 50.558 127.753 50.558C127.753 50.558 127.753 50.558 127.753 50.558C127.753 50.558 127.753 50.558 127.753 50.558C127.753 50.558 127.753 50.5579 127.753 50.5579C127.753 50.5579 127.753 50.5579 127.753 50.5579C127.753 50.5579 127.753 50.5578 127.753 50.5578C127.753 50.5578 127.753 50.5578 127.753 50.5578C127.753 50.5577 127.753 50.5577 127.753 50.5577C127.753 50.5577 127.753 50.5576 127.753 50.5576C127.753 50.5576 127.753 50.5576 127.753 50.5575C127.753 50.5575 127.753 50.5575 127.753 50.5574C127.753 50.5574 127.753 50.5574 127.753 50.5574C127.753 50.5573 127.753 50.5573 127.753 50.5572C127.753 50.5572 127.753 50.5572 127.753 50.5571C127.753 50.5571 127.753 50.5571 127.753 50.557C127.753 50.557 127.753 50.5569 127.753 50.5569C127.753 50.5569 127.753 50.5568 127.753 50.5568C127.753 50.5567 127.753 50.5567 127.753 50.5566C127.753 50.5566 127.753 50.5565 127.753 50.5565C127.753 50.5564 127.753 50.5564 127.753 50.5563C127.753 50.5563 127.753 50.5562 127.753 50.5562C127.753 50.5561 127.753 50.5561 127.753 50.556C127.753 50.556 127.753 50.5559 127.753 50.5558C127.753 50.5558 127.753 50.5557 127.753 50.5557C127.753 50.5556 127.753 50.5555 127.753 50.5555C127.753 50.5554 127.753 50.5554 127.753 50.5553C127.753 50.5552 127.753 50.5552 127.753 50.5551C127.753 50.555 127.753 50.555 127.753 50.5549C127.753 50.5548 127.753 50.5548 127.753 50.5547C127.753 50.5546 127.753 50.5546 127.753 50.5545C127.753 50.5544 127.753 50.5543 127.753 50.5543C127.753 50.5542 127.753 50.5541 127.753 50.554C127.753 50.554 127.753 50.5539 127.753 50.5538C127.753 50.5537 127.753 50.5536 127.753 50.5536C127.753 50.5535 127.753 50.5534 127.753 50.5533C127.753 50.5532 127.753 50.5532 127.753 50.5531C127.753 50.553 127.753 50.5529 127.753 50.5528C127.753 50.5527 127.753 50.5527 127.753 50.5526C127.753 50.5525 127.753 50.5524 127.753 50.5523C127.753 50.5522 127.753 50.5521 127.753 50.552C127.753 50.5519 127.753 50.5518 127.753 50.5518C127.753 50.5517 127.753 50.5516 127.753 50.5515C127.753 50.5514 127.753 50.5513 127.753 50.5512C127.753 50.5511 127.753 50.551 127.753 50.5509C127.753 50.5508 127.753 50.5507 127.753 50.5506C127.753 50.5505 127.753 50.5504 127.753 50.5503C127.753 50.5502 127.753 50.5501 127.753 50.55C127.753 50.5499 127.753 50.5498 127.753 50.5497C127.753 50.5496 127.753 50.5495 127.753 50.5494C127.753 50.5492 127.753 50.5491 127.753 50.549C127.753 50.5489 127.753 50.5488 127.753 50.5487C127.753 50.5486 127.753 50.5485 127.753 50.5484C127.753 50.5483 127.753 50.5481 127.753 50.548C127.753 50.5479 127.753 50.5478 127.753 50.5477C127.753 50.5476 127.753 50.5475 127.753 50.5473C127.753 50.5472 127.753 50.5471 127.753 50.547C127.753 50.5469 127.753 50.5467 127.753 50.5466C127.753 50.5465 127.753 50.5464 127.753 50.5463C127.753 50.5462 127.753 50.546 127.753 50.5459C127.753 50.5458 127.753 50.5457 127.753 50.5455C127.753 50.5454 127.753 50.5453 127.753 50.5452C127.753 50.545 127.753 50.5449 127.753 50.5448C127.753 50.5447 127.753 50.5445 127.753 50.5444C127.753 50.5443 127.753 50.5441 127.753 50.544C127.753 50.5439 127.753 50.5438 127.753 50.5436C127.753 50.5435 127.753 50.5434 127.753 50.5432C127.753 50.5431 127.753 50.543 127.753 50.5428C127.753 50.5427 127.753 50.5426 127.753 50.5424C127.753 50.5423 127.753 50.5421 127.753 50.542C127.753 50.5419 127.753 50.5417 127.753 50.5416C127.753 50.5415 127.753 50.5413 127.753 50.5412C127.753 50.541 127.753 50.5409 127.753 50.5408C127.753 50.5406 127.753 50.5405 127.753 50.5403C127.753 50.5402 127.753 50.5401 127.753 50.5399C127.753 50.5398 127.753 50.5396 127.753 50.5395C127.753 50.5393 127.753 50.5392 127.753 50.539C127.753 50.5389 127.753 50.5388 127.753 50.5386C127.753 50.5385 127.753 50.5383 127.753 50.5382C127.753 50.538 127.753 50.5379 127.753 50.5377C127.753 50.5376 127.753 50.5374 127.753 50.5373C127.753 50.5371 127.753 50.537 127.753 50.5368C127.753 50.5367 127.753 50.5365 127.753 50.5364C127.753 50.5362 127.753 50.5361 127.753 50.5359C127.753 50.5357 127.753 50.5356 127.753 50.5354C127.753 50.5353 127.753 50.5351 127.753 50.535C127.753 50.5348 127.753 50.5347 127.753 50.5345C127.753 50.5343 127.753 50.5342 127.753 50.534C127.753 50.5339 127.753 50.5337 127.753 50.5336C127.753 50.5334 127.753 50.5332 127.753 50.5331C127.753 50.5329 127.753 50.5328 127.753 50.5326C127.753 50.5324 127.753 50.5323 127.753 50.5321C127.753 50.532 127.753 50.5318 127.753 50.5316C127.753 50.5315 127.753 50.5313 127.753 50.5311C127.753 50.531 127.753 50.5308 127.753 50.5307C127.753 50.5305 127.753 50.5303 127.753 50.5302C127.753 50.53 127.753 50.5298 127.753 50.5297C127.753 50.5295 127.753 50.5293 127.753 50.5292C127.753 50.529 127.753 50.5288 127.753 50.5287C127.753 50.5285 127.753 50.5283 127.753 50.5281C127.753 50.528 127.753 50.5278 127.753 50.5276C127.753 50.5275 127.753 50.5273 127.753 50.5271C127.753 50.527 127.753 50.5268 127.753 50.5266C127.753 50.5265 127.753 50.5263 127.753 50.5261C127.753 50.5259 127.753 50.5258 127.753 50.5256C127.753 50.5254 127.753 50.5252 127.753 50.5251C127.753 50.5249 127.753 50.5247 127.753 50.5246C127.753 50.5244 127.753 50.5242 127.753 50.524C127.753 50.5239 127.753 50.5237 127.753 50.5235C127.753 50.5233 127.753 50.5232 127.753 50.523C127.753 50.5228 127.753 50.5226 127.753 50.5224C127.753 50.5223 127.753 50.5221 127.753 50.5219C127.753 50.5217 127.753 50.5216 127.753 50.5214C127.753 50.5212 127.753 50.521 127.753 50.5209C127.753 50.5207 127.753 50.5205 127.753 50.5203C127.753 50.5201 127.753 50.52 127.753 50.5198C127.753 50.5196 127.753 50.5194 127.753 50.5192C127.753 50.5191 127.753 50.5189 127.753 50.5187C127.753 50.5185 127.753 50.5183 127.753 50.5182C127.753 50.518 127.753 50.5178 127.753 50.5176C127.753 50.5174 127.753 50.5173 127.753 50.5171C127.753 50.5169 127.753 50.5167 127.753 50.5165C127.753 50.5163 127.753 50.5162 127.753 50.516C127.753 50.5158 127.753 50.5156 127.753 50.5154C127.753 50.5152 127.753 50.5151 127.753 50.5149C127.753 50.5147 127.753 50.5145 127.753 50.5143C127.753 50.5141 127.753 50.514 127.753 50.5138C127.753 50.5136 127.753 50.5134 127.753 50.5132C127.753 50.513 127.753 50.5129 127.753 50.5127C127.753 50.5125 127.753 50.5123 127.753 50.5121C127.753 50.5119 127.753 50.5117 127.753 50.5116C127.753 50.5114 127.753 50.5112 127.753 50.511C127.753 50.5108 127.753 50.5106 127.753 50.5104C127.753 50.5103 127.753 50.5101 127.753 50.5099C127.753 50.5097 127.753 50.5095 127.753 50.5093C127.753 50.5091 127.753 50.5089 127.753 50.5088C127.753 50.5086 127.753 50.5084 127.753 50.5082C127.753 50.508 127.753 50.5078 127.753 50.5076C127.753 50.5075 127.753 50.5073 127.753 50.5071C127.753 50.5069 127.753 50.5067 127.753 50.5065C127.753 50.5063 127.753 50.5061 127.753 50.506C127.753 50.5058 127.753 50.5056 127.753 50.5054C127.753 50.5052 127.753 50.505 127.753 50.5048C127.753 50.5046 127.753 50.5045 127.753 50.5043C127.753 50.5041 127.753 50.5039 127.753 50.5037C127.753 50.5035 127.753 50.5033 127.753 50.5031C127.753 50.503 127.753 50.5028 127.753 50.5026C127.753 50.5024 127.753 50.5022 127.753 50.502C127.753 50.5018 127.753 50.5016 127.753 50.5015C127.753 50.5013 127.753 50.5011 127.753 50.5009C127.753 50.5007 127.753 50.5005 127.753 50.5003C127.753 50.5001 127.753 50.5 127.753 50.4998C127.753 50.4996 127.753 50.4994 127.753 50.4992C127.753 50.499 127.753 50.4988 127.753 50.4986C127.753 50.4985 127.753 50.4983 127.753 50.4981C127.753 50.4979 127.753 50.4977 127.753 50.4975C127.753 50.4973 127.753 50.4971 127.753 50.497C127.753 50.4968 127.753 50.4966 127.753 50.4964C127.753 50.4962 127.753 50.496 127.753 50.4958C127.753 50.4957 127.753 50.4955 127.753 50.4953C127.753 50.4951 127.753 50.4949 127.753 50.4947C127.753 50.4945 127.753 50.4944 127.753 50.4942C127.753 50.494 127.753 50.4938 127.753 50.4936C127.753 50.4934 127.753 50.4932 127.753 50.4931C127.753 50.4929 127.753 50.4927 127.753 50.4925C127.753 50.4923 127.753 50.4921 127.753 50.4919C127.753 50.4918 127.753 50.4916 127.753 50.4914C127.753 50.4912 127.753 50.491 127.753 50.4908C127.753 50.4907 127.753 50.4905 127.753 50.4903C127.753 50.4901 127.753 50.4899 127.753 50.4897C127.753 50.4896 127.753 50.4894 127.753 50.4892C127.753 50.489 127.753 50.4888 127.753 50.4886C127.753 50.4885 127.753 50.4883 127.753 50.4881C127.753 50.4879 127.753 50.4877 127.753 50.4876C127.753 50.4874 127.753 50.4872 127.753 50.487C127.753 50.4868 127.753 50.4866 127.753 50.4865C127.753 50.4863 127.753 50.4861 127.753 50.4859C127.753 50.4857 127.753 50.4856 127.753 50.4854C127.753 50.4852 127.753 50.485 127.753 50.4848C127.753 50.4847 127.753 50.4845 127.753 50.4843C127.753 50.4841 127.753 50.484 127.753 50.4838C127.753 50.4836 127.753 50.4834 127.753 50.4832C127.753 50.4831 127.753 50.4829 127.753 50.4827C127.753 50.4825 127.753 50.4824 127.753 50.4822C127.753 50.482 127.753 50.4818 127.753 50.4817C127.753 50.4815 127.753 50.4813 127.753 50.4811C127.753 50.481 127.753 50.4808 127.753 50.4806C127.753 50.4804 127.753 50.4803 127.753 50.4801C127.753 50.4799 127.753 50.4797 127.753 50.4796C127.753 50.4794 127.753 50.4792 127.753 50.4791C127.753 50.4789 127.753 50.4787 127.753 50.4785C127.753 50.4784 127.753 50.4782 127.753 50.478C127.753 50.4779 127.753 50.4777 127.753 50.4775C127.753 50.4774 127.753 50.4772 127.753 50.477C127.753 50.4768 127.753 50.4767 127.753 50.4765C127.753 50.4763 127.753 50.4762 127.753 50.476C127.753 50.4758 127.753 50.4757 127.753 50.4755C127.753 50.4753 127.753 50.4752 127.753 50.475C127.753 50.4748 127.753 50.4747 127.753 50.4745C127.753 50.4743 127.753 50.4742 127.753 50.474C127.753 50.4739 127.753 50.4737 127.753 50.4735C127.753 50.4734 127.753 50.4732 127.753 50.473C127.753 50.4729 127.753 50.4727 127.753 50.4726C127.753 50.4724 127.753 50.4722 127.753 50.4721C127.753 50.4719 127.753 50.4718 127.753 50.4716C127.753 50.4714 127.753 50.4713 127.753 50.4711C127.753 50.471 127.753 50.4708 127.753 50.4707C127.753 50.4705 127.753 50.4703 127.753 50.4702C127.753 50.47 127.753 50.4699 127.753 50.4697C127.753 50.4696 127.753 50.4694 127.753 50.4693C127.753 50.4691 127.753 50.469 127.753 50.4688C127.753 50.4687 127.753 50.4685 127.753 50.4683C127.753 50.4682 127.753 50.468 127.753 50.4679C127.753 50.4677 127.753 50.4676 127.753 50.4674C127.753 50.4673 127.753 50.4672 127.753 50.467C127.753 50.4669 127.753 50.4667 127.753 50.4666C127.753 50.4664 127.753 50.4663 127.753 50.4661C127.753 50.466 127.753 50.4658 127.753 50.4657C127.753 50.4655 127.753 50.4654 127.753 50.4653C127.753 50.4651 127.753 50.465 127.753 50.4648C127.753 50.4647 127.753 50.4645 127.753 50.4644C127.753 50.4643 127.753 50.4641 127.753 50.464C127.753 50.4638 127.753 50.4637 127.753 50.4636C127.753 50.4634 127.753 50.4633 127.753 50.4632C127.753 50.463 127.753 50.4629 127.753 50.4627C127.753 50.4626 127.753 50.4625 127.753 50.4623C127.753 50.4622 127.753 50.4621 127.753 50.4619C127.753 50.4618 127.753 50.4617 127.753 50.4615C127.753 50.4614 127.753 50.4613 127.753 50.4612C127.753 50.461 127.753 50.4609 127.753 50.4608C127.753 50.4606 127.753 50.4605 127.753 50.4604C127.753 50.4603 127.753 50.4601 127.753 50.46C127.753 50.4599 127.753 50.4598 127.753 50.4596C127.753 50.4595 127.753 50.4594 127.753 50.4593C127.753 50.4591 127.753 50.459 127.753 50.4589C127.753 50.4588 127.753 50.4587 127.753 50.4585C127.753 50.4584 127.753 50.4583 127.753 50.4582C127.753 50.4581 127.753 50.4579 127.753 50.4578C127.753 50.4577 127.753 50.4576 127.753 50.4575C127.753 50.4574 127.753 50.4572 127.753 50.4571C127.753 50.457 127.753 50.4569 127.753 50.4568C127.753 50.4567 127.753 50.4566 127.753 50.4565C127.753 50.4564 127.753 50.4562 127.753 50.4561C127.753 50.456 127.753 50.4559 127.753 50.4558C127.753 50.4557 127.753 50.4556 127.753 50.4555C127.753 50.4554 127.753 50.4553 127.753 50.4552C127.753 50.4551 127.753 50.455 127.753 50.4549C127.753 50.4548 127.753 50.4547 127.753 50.4546C127.753 50.4545 127.753 50.4544 127.753 50.4543C127.753 50.4542 127.753 50.4541 127.753 50.454C127.753 50.4539 127.753 50.4538 127.753 50.4537C127.753 50.4536 127.753 50.4535 127.753 50.4534C127.753 50.4533 127.753 50.4532 127.753 50.4531C127.753 50.453 127.753 50.453 127.753 50.4529C127.753 50.4528 127.753 50.4527 127.753 50.4526C127.753 50.4525 127.753 50.4524 127.753 50.4523C127.753 50.4523 127.753 50.4522 127.753 50.4521C127.753 50.452 127.753 50.4519 127.753 50.4518C127.753 50.4518 127.753 50.4517 127.753 50.4516C127.753 50.4515 127.753 50.4514 127.753 50.4514C127.753 50.4513 127.753 50.4512 127.753 50.4511C127.753 50.4511 127.753 50.451 127.753 50.4509C127.753 50.4508 127.753 50.4508 127.753 50.4507C127.753 50.4506 127.753 50.4505 127.753 50.4505C127.753 50.4504 127.753 50.4503 127.753 50.4503C127.753 50.4502 127.753 50.4501 127.753 50.4501C127.753 50.45 127.753 50.4499 127.753 50.4499C127.753 50.4498 127.753 50.4497 127.753 50.4497C127.753 50.4496 127.753 50.4496 127.753 50.4495C127.753 50.4494 127.753 50.4494 127.753 50.4493C127.753 50.4493 127.753 50.4492 127.753 50.4492C127.753 50.4491 127.753 50.449 127.753 50.449C127.753 50.4489 127.753 50.4489 127.753 50.4488C127.753 50.4488 127.753 50.4487 127.753 50.4487C127.753 50.4486 127.753 50.4486 127.753 50.4485C127.753 50.4485 127.753 50.4484 127.753 50.4484C127.753 50.4484 127.753 50.4483 127.753 50.4483C127.753 50.4482 127.753 50.4482 127.753 50.4481C127.753 50.4481 127.753 50.4481 127.753 50.448C127.753 50.448 127.753 50.448 127.753 50.4479C127.753 50.4479 127.753 50.4478 127.753 50.4478C127.753 50.4478 127.753 50.4477 127.753 50.4477C127.753 50.4477 127.753 50.4477 127.753 50.4476C127.753 50.4476 127.753 50.4476 127.753 50.4475C127.753 50.4475 127.753 50.4475 127.753 50.4475C127.753 50.4474 127.753 50.4474 127.753 50.4474C127.753 50.4474 127.753 50.4474 127.753 50.4473C127.753 50.4473 127.753 50.4473 127.753 50.4473C127.753 50.4473 127.753 50.4473 127.753 50.4472C127.753 50.4472 127.753 50.4472 127.753 50.4472C127.753 50.4472 127.753 50.4472 127.753 50.4472C127.753 50.4472 127.753 50.4471 127.753 50.4471C127.753 50.4471 127.753 50.4471 127.753 50.4471C127.753 50.4471 127.753 50.4471 127.753 50.4471C127.753 50.4471 126.953 50.4471 126.153 50.4471C126.153 50.4471 126.153 50.4471 126.153 50.4471C126.153 50.4471 126.153 50.4471 126.153 50.4471C126.153 50.4471 126.153 50.4471 126.153 50.4472C126.153 50.4472 126.153 50.4472 126.153 50.4472C126.153 50.4472 126.153 50.4472 126.153 50.4472C126.153 50.4472 126.153 50.4472 126.153 50.4473C126.153 50.4473 126.153 50.4473 126.153 50.4473C126.153 50.4473 126.153 50.4473 126.153 50.4474C126.153 50.4474 126.153 50.4474 126.153 50.4474C126.153 50.4475 126.153 50.4475 126.153 50.4475C126.153 50.4475 126.153 50.4476 126.153 50.4476C126.153 50.4476 126.153 50.4477 126.153 50.4477C126.153 50.4477 126.153 50.4478 126.153 50.4478C126.153 50.4478 126.153 50.4479 126.153 50.4479C126.153 50.4479 126.153 50.448 126.153 50.448C126.153 50.4481 126.153 50.4481 126.153 50.4481C126.153 50.4482 126.153 50.4482 126.153 50.4483C126.153 50.4483 126.153 50.4484 126.153 50.4484C126.153 50.4485 126.153 50.4485 126.153 50.4486C126.153 50.4486 126.153 50.4487 126.153 50.4487C126.153 50.4488 126.153 50.4488 126.153 50.4489C126.153 50.449 126.153 50.449 126.153 50.4491C126.153 50.4491 126.153 50.4492 126.153 50.4493C126.153 50.4493 126.153 50.4494 126.153 50.4495C126.153 50.4495 126.153 50.4496 126.153 50.4497C126.153 50.4497 126.153 50.4498 126.153 50.4499C126.153 50.45 126.153 50.45 126.153 50.4501C126.153 50.4502 126.153 50.4503 126.153 50.4503C126.153 50.4504 126.153 50.4505 126.153 50.4506C126.153 50.4507 126.153 50.4507 126.153 50.4508C126.153 50.4509 126.153 50.451 126.153 50.4511C126.153 50.4512 126.153 50.4513 126.153 50.4513C126.153 50.4514 126.153 50.4515 126.153 50.4516C126.153 50.4517 126.153 50.4518 126.153 50.4519C126.153 50.452 126.153 50.4521 126.153 50.4522C126.153 50.4523 126.153 50.4524 126.153 50.4525C126.153 50.4526 126.153 50.4527 126.153 50.4528C126.153 50.4529 126.153 50.453 126.153 50.4531C126.153 50.4533 126.153 50.4534 126.153 50.4535C126.153 50.4536 126.153 50.4537 126.153 50.4538C126.153 50.4539 126.153 50.4541 126.153 50.4542C126.153 50.4543 126.153 50.4544 126.153 50.4545C126.153 50.4547 126.153 50.4548 126.153 50.4549C126.153 50.455 126.153 50.4552 126.153 50.4553C126.153 50.4554 126.153 50.4556 126.153 50.4557C126.153 50.4558 126.153 50.456 126.153 50.4561C126.153 50.4562 126.153 50.4564 126.153 50.4565C126.153 50.4566 126.153 50.4568 126.153 50.4569C126.153 50.4571 126.153 50.4572 126.153 50.4574C126.153 50.4575 126.153 50.4576 126.153 50.4578C126.153 50.4579 126.153 50.4581 126.153 50.4582C126.153 50.4584 126.153 50.4586 126.153 50.4587C126.153 50.4589 126.153 50.459 126.153 50.4592C126.153 50.4593 126.153 50.4595 126.153 50.4597C126.153 50.4598 126.153 50.46 126.153 50.4602C126.153 50.4603 126.153 50.4605 126.153 50.4607C126.153 50.4608 126.153 50.461 126.153 50.4612C126.153 50.4614 126.153 50.4615 126.153 50.4617C126.153 50.4619 126.153 50.4621 126.153 50.4622C126.153 50.4624 126.153 50.4626 126.153 50.4628C126.153 50.463 126.153 50.4632 126.153 50.4633C126.153 50.4635 126.153 50.4637 126.153 50.4639C126.153 50.4641 126.153 50.4643 126.153 50.4645C126.153 50.4647 126.153 50.4649 126.153 50.4651C126.153 50.4653 126.153 50.4655 126.153 50.4657C126.153 50.4659 126.153 50.4661 126.153 50.4663C126.153 50.4665 126.153 50.4667 126.153 50.4669C126.153 50.4671 126.153 50.4673 126.153 50.4676C126.153 50.4678 126.153 50.468 126.153 50.4682C126.153 50.4684 126.153 50.4686 126.153 50.4689C126.153 50.4691 126.153 50.4693 126.153 50.4695C126.153 50.4697 126.153 50.47 126.153 50.4702C126.153 50.4704 126.153 50.4707 126.153 50.4709C126.153 50.4711 126.153 50.4714 126.153 50.4716C126.153 50.4718 126.153 50.4721 126.153 50.4723C126.153 50.4725 126.153 50.4728 126.153 50.473C126.153 50.4733 126.153 50.4735 126.153 50.4738C126.153 50.474 126.153 50.4743 126.153 50.4745C126.153 50.4748 126.153 50.475 126.153 50.4753C126.153 50.4755 126.153 50.4758 126.153 50.476C126.153 50.4763 126.153 50.4766 126.153 50.4768C126.153 50.4771 126.153 50.4774 126.153 50.4776C126.153 50.4779 126.153 50.4782 126.153 50.4784C126.153 50.4787 126.153 50.479 126.153 50.4792C126.153 50.4795 126.153 50.4798 126.153 50.4801C126.153 50.4804 126.153 50.4806 126.153 50.4809C126.153 50.4812 126.153 50.4815 126.153 50.4818C126.153 50.4821 126.153 50.4823 126.153 50.4826C126.153 50.4829 126.153 50.4832 126.153 50.4835C126.153 50.4838 126.153 50.4841 126.153 50.4844C126.153 50.4847 126.153 50.485 126.153 50.4853C126.153 50.4856 126.153 50.4859 126.153 50.4862C126.153 50.4865 126.153 50.4868 126.153 50.4871C126.153 50.4875 126.153 50.4878 126.153 50.4881C126.153 50.4884 126.153 50.4887 126.153 50.489C126.153 50.4894 126.153 50.4897 126.153 50.49C126.153 50.4903 126.153 50.4907 126.153 50.491C126.153 50.4913 126.153 50.4916 126.153 50.492C126.153 50.4923 126.153 50.4926 126.153 50.493C126.153 50.4933 126.153 50.4937 126.153 50.494C126.153 50.4943 126.153 50.4947 126.153 50.495C126.153 50.4954 126.153 50.4957 126.153 50.4961C126.153 50.4964 126.153 50.4968 126.153 50.4971C126.153 50.4975 126.153 50.4978 126.153 50.4982C126.153 50.4985 126.153 50.4989 126.153 50.4993C126.153 50.4996 126.153 50.5 126.153 50.5004C126.153 50.5007 126.153 50.5011 126.153 50.5015C126.153 50.5018 126.153 50.5022 126.153 50.5026H127.753ZM106.539 100.003L85.6126 75.1074L84.3878 76.1369L105.314 101.032L106.539 100.003ZM85.0002 74.8222H53.5159V76.4222H85.0002V74.8222ZM53.5159 74.8222C46.0176 74.8222 38.3579 72.9654 32.5957 68.7886C26.867 64.6361 22.9575 58.1539 22.9575 48.7304H21.3575C21.3575 58.6671 25.5132 65.6308 31.6567 70.0841C37.7668 74.5131 45.7863 76.4222 53.5159 76.4222V74.8222ZM22.9575 48.7304C22.9575 39.2595 26.3023 32.8638 31.419 28.8147C36.5662 24.7415 43.6068 22.9643 51.1126 22.9643V21.3643C43.3852 21.3643 35.9483 23.1901 30.4262 27.56C24.8737 31.9539 21.3575 38.8412 21.3575 48.7304H22.9575ZM51.1126 22.9643H77.2708V21.3643H51.1126V22.9643ZM77.2708 22.9643C84.747 22.9643 91.7219 25.0324 96.8145 29.4029C101.888 33.7569 105.179 40.4685 105.179 49.9475H106.779C106.779 40.0663 103.33 32.8863 97.8565 28.1887C92.402 23.5077 85.0226 21.3643 77.2708 21.3643V22.9643ZM105.179 49.9465L105.122 100.517L106.722 100.519L106.779 49.9484L105.179 49.9465ZM105.922 101.318H105.927V99.7176H105.922V101.318Z" fill="white" mask="url(#path-1-outside-1_25857_10907)"/>
<path d="M227.174 129.072H227.574V128.672V107.524V107.124H227.174H176.39C171.401 107.124 167.345 103.007 167.345 97.9159V4.07812V3.67812H166.945H145.955H145.555V4.07812V99.8481C145.555 115.98 158.416 129.072 174.291 129.072H227.174Z" fill="white" stroke="white" stroke-width="0.8"/>
<rect width="168" height="72" transform="translate(229 1)" fill="#B6FC34"/>
<path d="M256.647 52.48C253.895 52.48 251.719 51.776 250.119 50.368C248.551 48.928 247.767 46.976 247.767 44.512C247.767 42.016 248.599 40.064 250.263 38.656C251.959 37.216 254.279 36.496 257.223 36.496H264.567V34.048C264.567 32.608 264.119 31.488 263.223 30.688C262.327 29.888 261.063 29.488 259.431 29.488C257.991 29.488 256.791 29.808 255.831 30.448C254.871 31.056 254.311 31.872 254.151 32.896H249.063C249.351 30.528 250.439 28.64 252.327 27.232C254.247 25.824 256.663 25.12 259.575 25.12C262.711 25.12 265.191 25.92 267.015 27.52C268.839 29.088 269.751 31.232 269.751 33.952V52H264.711V47.152H263.847L264.711 46.192C264.711 48.112 263.975 49.648 262.503 50.8C261.031 51.92 259.079 52.48 256.647 52.48ZM258.183 48.496C260.039 48.496 261.559 48.032 262.743 47.104C263.959 46.144 264.567 44.928 264.567 43.456V40H257.319C255.975 40 254.903 40.368 254.103 41.104C253.335 41.84 252.951 42.848 252.951 44.128C252.951 45.472 253.415 46.544 254.343 47.344C255.271 48.112 256.551 48.496 258.183 48.496ZM289.94 52C288.308 52 286.884 51.68 285.668 51.04C284.452 50.368 283.492 49.424 282.788 48.208C282.116 46.992 281.78 45.584 281.78 43.984V21.664H273.14V16.96H286.964V43.984C286.964 45.008 287.252 45.824 287.828 46.432C288.404 47.008 289.188 47.296 290.18 47.296H298.34V52H289.94ZM302.641 60.64V25.6H307.777V30.64H308.881L307.777 31.84C307.777 29.76 308.417 28.128 309.697 26.944C311.009 25.728 312.753 25.12 314.929 25.12C317.585 25.12 319.697 26.016 321.265 27.808C322.865 29.568 323.665 31.984 323.665 35.056V42.496C323.665 44.544 323.297 46.32 322.561 47.824C321.857 49.296 320.849 50.448 319.537 51.28C318.257 52.08 316.721 52.48 314.929 52.48C312.785 52.48 311.057 51.888 309.745 50.704C308.433 49.488 307.777 47.84 307.777 45.76L308.881 46.96H307.681L307.825 53.104V60.64H302.641ZM313.153 47.968C314.849 47.968 316.161 47.488 317.089 46.528C318.049 45.536 318.529 44.112 318.529 42.256V35.344C318.529 33.488 318.049 32.08 317.089 31.12C316.161 30.128 314.849 29.632 313.153 29.632C311.521 29.632 310.225 30.144 309.265 31.168C308.305 32.16 307.825 33.552 307.825 35.344V42.256C307.825 44.048 308.305 45.456 309.265 46.48C310.225 47.472 311.521 47.968 313.153 47.968ZM329.503 52V16.96H334.687V25.6L334.639 30.64H335.887L334.639 31.84C334.639 29.728 335.263 28.08 336.511 26.896C337.759 25.712 339.487 25.12 341.695 25.12C344.319 25.12 346.415 25.968 347.983 27.664C349.551 29.328 350.335 31.584 350.335 34.432V52H345.151V35.008C345.151 33.28 344.687 31.936 343.759 30.976C342.831 30.016 341.567 29.536 339.967 29.536C338.335 29.536 337.039 30.048 336.079 31.072C335.151 32.064 334.687 33.488 334.687 35.344V52H329.503ZM364.092 52.48C361.34 52.48 359.164 51.776 357.564 50.368C355.996 48.928 355.212 46.976 355.212 44.512C355.212 42.016 356.044 40.064 357.708 38.656C359.404 37.216 361.724 36.496 364.668 36.496H372.012V34.048C372.012 32.608 371.564 31.488 370.668 30.688C369.772 29.888 368.508 29.488 366.876 29.488C365.436 29.488 364.236 29.808 363.276 30.448C362.316 31.056 361.756 31.872 361.596 32.896H356.508C356.796 30.528 357.884 28.64 359.772 27.232C361.692 25.824 364.108 25.12 367.02 25.12C370.156 25.12 372.636 25.92 374.46 27.52C376.284 29.088 377.196 31.232 377.196 33.952V52H372.156V47.152H371.292L372.156 46.192C372.156 48.112 371.42 49.648 369.948 50.8C368.476 51.92 366.524 52.48 364.092 52.48ZM365.628 48.496C367.484 48.496 369.004 48.032 370.188 47.104C371.404 46.144 372.012 44.928 372.012 43.456V40H364.764C363.42 40 362.348 40.368 361.548 41.104C360.78 41.84 360.396 42.848 360.396 44.128C360.396 45.472 360.86 46.544 361.788 47.344C362.716 48.112 363.996 48.496 365.628 48.496Z" fill="black"/>
</svg>
