<svg width="230" height="130" viewBox="0 0 230 130" fill="none" xmlns="http://www.w3.org/2000/svg">
<mask id="path-1-outside-1_25857_10907" maskUnits="userSpaceOnUse" x="0" y="0" width="128" height="130" fill="black">
<rect fill="white" width="128" height="130"/>
<path d="M126.953 50.5026C126.953 16.0259 101.865 1 78.4462 1H49.8899C26.4394 1 1 14.2537 1 48.7304C1 83.2072 30.0968 96.9733 53.5159 96.9733H74.5055L105.969 128.968L126.979 129L126.953 50.5026C126.953 50.6947 126.953 50.3104 126.953 50.5026ZM105.927 100.518L85.0002 75.6222H53.5159C38.288 75.6222 22.1575 68.0906 22.1575 48.7304C22.1575 29.3703 35.8794 22.1643 51.1126 22.1643H77.2708C92.4988 22.1643 105.979 30.5873 105.979 49.9475L105.922 100.518H105.927Z"/>
</mask>
<path d="M126.953 50.5026C126.953 16.0259 101.865 1 78.4462 1H49.8899C26.4394 1 1 14.2537 1 48.7304C1 83.2072 30.0968 96.9733 53.5159 96.9733H74.5055L105.969 128.968L126.979 129L126.953 50.5026C126.953 50.6947 126.953 50.3104 126.953 50.5026ZM105.927 100.518L85.0002 75.6222H53.5159C38.288 75.6222 22.1575 68.0906 22.1575 48.7304C22.1575 29.3703 35.8794 22.1643 51.1126 22.1643H77.2708C92.4988 22.1643 105.979 30.5873 105.979 49.9475L105.922 100.518H105.927Z" fill="#B6FC34"/>
<path d="M74.5055 96.9733L75.0759 96.4124L74.8408 96.1733H74.5055V96.9733ZM105.969 128.968L105.398 129.529L105.633 129.767L105.968 129.768L105.969 128.968ZM126.979 129L126.978 129.8L127.78 129.801L127.779 129L126.979 129ZM105.927 100.518V101.318H107.644L106.539 100.003L105.927 100.518ZM85.0002 75.6222L85.6126 75.1074L85.3729 74.8222H85.0002V75.6222ZM105.979 49.9475L106.779 49.9484V49.9475H105.979ZM105.922 100.518L105.122 100.517L105.121 101.318H105.922V100.518ZM127.753 50.5026C127.753 33.0525 121.395 20.4508 112.009 12.221C102.641 4.00692 90.3171 0.2 78.4462 0.2V1.8C89.9945 1.8 101.924 5.50601 110.954 13.424C119.967 21.3263 126.153 33.4759 126.153 50.5026H127.753ZM78.4462 0.2H49.8899V1.8H78.4462V0.2ZM49.8899 0.2C38.0272 0.2 25.6107 3.55058 16.1436 11.318C6.65147 19.1058 0.2 31.2736 0.2 48.7304H1.8C1.8 31.7105 8.0682 20.0131 17.1584 12.5549C26.2736 5.07628 38.3021 1.8 49.8899 1.8V0.2ZM0.2 48.7304C0.2 66.2263 7.59711 78.5198 17.9918 86.4176C28.3582 94.294 41.6667 97.7733 53.5159 97.7733V96.1733C41.946 96.1733 28.9965 92.7696 18.9598 85.1437C8.95128 77.5392 1.8 65.7113 1.8 48.7304H0.2ZM53.5159 97.7733H74.5055V96.1733H53.5159V97.7733ZM73.9351 97.5342L105.398 129.529L106.539 128.407L75.0759 96.4124L73.9351 97.5342ZM105.968 129.768L126.978 129.8L126.981 128.2L105.97 128.168L105.968 129.768ZM127.779 129L127.753 50.5023L126.153 50.5028L126.179 129L127.779 129ZM127.753 50.5026C127.753 50.5026 127.753 50.5026 127.753 50.5026C127.753 50.5026 127.753 50.5026 127.753 50.5026C127.753 50.5026 127.753 50.5026 127.753 50.5026H126.153C126.153 50.5026 126.153 50.5026 126.153 50.5026C126.153 50.5026 126.153 50.5026 126.153 50.5026C126.153 50.5026 126.153 50.5026 126.153 50.5026H127.753ZM106.539 100.003L85.6126 75.1074L84.3878 76.1369L105.314 101.032L106.539 100.003ZM85.0002 74.8222H53.5159V76.4222H85.0002V74.8222ZM53.5159 74.8222C46.0176 74.8222 38.3579 72.9654 32.5957 68.7886C26.867 64.6361 22.9575 58.1539 22.9575 48.7304H21.3575C21.3575 58.6671 25.5132 65.6308 31.6567 70.0841C37.7668 74.5131 45.7863 76.4222 53.5159 76.4222V74.8222ZM22.9575 48.7304C22.9575 39.2595 26.3023 32.8638 31.419 28.8147C36.5662 24.7415 43.6068 22.9643 51.1126 22.9643V21.3643C43.3852 21.3643 35.9483 23.1901 30.4262 27.56C24.8737 31.9539 21.3575 38.8412 21.3575 48.7304H22.9575ZM51.1126 22.9643H77.2708V21.3643H51.1126V22.9643ZM77.2708 22.9643C84.747 22.9643 91.7219 25.0324 96.8145 29.4029C101.888 33.7569 105.179 40.4685 105.179 49.9475H106.779C106.779 40.0663 103.33 32.8863 97.8565 28.1887C92.402 23.5077 85.0226 21.3643 77.2708 21.3643V22.9643ZM105.179 49.9465L105.122 100.517L106.722 100.519L106.779 49.9484L105.179 49.9465ZM105.922 101.318H105.927V99.7176H105.922V101.318Z" fill="#B6FC34" mask="url(#path-1-outside-1_25857_10907)"/>
<path d="M227.174 129.072H227.574V128.672V107.524V107.124H227.174H176.39C171.401 107.124 167.345 103.007 167.345 97.9159V4.07812V3.67812H166.945H145.955H145.555V4.07812V99.8481C145.555 115.98 158.416 129.072 174.291 129.072H227.174Z" fill="#B6FC34" stroke="#B6FC34" stroke-width="0.8"/>
</svg>
