<svg width="110" height="135" viewBox="0 0 110 135" fill="none" xmlns="http://www.w3.org/2000/svg">
<path d="M61.25 35H77.461C77.0118 34.0938 76.4258 33.2578 75.6876 32.5234L63.7226 20.5584C62.9882 19.824 62.1484 19.2342 61.246 18.785V34.996L61.25 35Z" fill="#B6FC34"/>
<path d="M75.797 76.504C72.797 76.504 69.9454 75.8634 67.3556 74.7306C67.4415 75.0158 67.504 75.3126 67.504 75.6251C67.504 77.3517 66.1056 78.7501 64.379 78.7501H26.875C25.1484 78.7501 23.75 77.3517 23.75 75.6251C23.75 73.8985 25.1484 72.5001 26.875 72.5001H63.477C61.1645 70.8282 59.2075 68.7032 57.7309 66.2501H26.8759C25.1493 66.2501 23.7509 64.8517 23.7509 63.1251C23.7509 61.3985 25.1493 60.0001 26.8759 60.0001H55.2199C54.8918 58.5196 54.7043 56.9884 54.7043 55.4103C54.7043 49.9572 56.802 44.9963 60.2082 41.2503H58.1301C56.4035 41.2503 55.0051 39.8519 55.0051 38.1253L55.0012 17.8133H22.1892C17.0173 17.8133 12.8142 22.0164 12.8142 27.1883V92.8133C12.8142 97.9852 17.0173 102.188 22.1892 102.188H69.0642C74.2361 102.188 78.4392 97.9852 78.4392 92.8133V76.3213C77.572 76.4307 76.6931 76.5049 75.7986 76.5049L75.797 76.504ZM29.328 31.149C29.4139 29.5006 30.7655 28.1881 32.4374 28.1881C34.0312 28.1881 35.328 29.3834 35.5233 30.9225H36.5702C38.2968 30.9225 39.6952 32.3209 39.6952 34.0475C39.6952 35.7741 38.2968 37.1725 36.5702 37.1725H31.039C30.4999 37.1725 30.0624 37.61 30.0624 38.1491C30.0624 38.6881 30.4999 39.1256 31.039 39.1256H33.8359C37.8203 39.1256 41.0625 42.3678 41.0625 46.3522C41.0625 49.7428 38.7031 52.5788 35.5469 53.3522C35.461 55.0006 34.1094 56.3131 32.4375 56.3131C30.8437 56.3131 29.5469 55.1178 29.3516 53.5787H28.3047C26.5781 53.5787 25.1797 52.1803 25.1797 50.4537C25.1797 48.7271 26.5781 47.3287 28.3047 47.3287H33.8359C34.375 47.3287 34.8125 46.8912 34.8125 46.3522C34.8125 45.8131 34.375 45.3756 33.8359 45.3756H31.039C27.0546 45.3756 23.8124 42.1334 23.8124 38.149C23.8124 34.7584 26.1718 31.9224 29.328 31.149ZM56.562 91.251H26.874C25.1474 91.251 23.749 89.8526 23.749 88.126C23.749 86.3994 25.1474 85.001 26.874 85.001H56.562C58.2886 85.001 59.687 86.3994 59.687 88.126C59.687 89.8526 58.2886 91.251 56.562 91.251Z" fill="#B6FC34"/>
<path d="M82.188 70.387L85.9185 80.438Z" fill="black"/>
<path d="M85.918 80.438C88.3438 79.5357 91.2149 81.2349 91.9453 83.1997L96.0664 94.3017C96.9687 96.7275 95.7304 99.4267 93.3047 100.329C90.8789 101.231 88.0078 99.5321 87.2774 97.5673L83.1563 86.4653C82.2539 84.0395 83.4922 81.3403 85.918 80.438Z" fill="#B6FC34"/>
<path d="M75.793 37.441C65.8711 37.441 57.824 45.4879 57.824 55.41C57.824 65.3321 65.8709 73.379 75.793 73.379C85.7151 73.379 93.762 65.3321 93.762 55.41C93.762 45.4879 85.7151 37.441 75.793 37.441ZM75.793 67.734C74.0664 67.734 72.668 66.3356 72.668 64.609C72.668 62.8824 74.0664 61.484 75.793 61.484C77.5196 61.484 78.918 62.8824 78.918 64.609C78.918 66.3356 77.5196 67.734 75.793 67.734ZM78.9219 56.406C78.9219 58.1326 77.5235 59.531 75.7969 59.531C74.0703 59.531 72.6719 58.1326 72.6719 56.406V46.406C72.6719 44.6794 74.0703 43.281 75.7969 43.281C77.5235 43.281 78.9219 44.6794 78.9219 46.406V56.406Z" fill="#B6FC34"/>
</svg>
