<svg xmlns="http://www.w3.org/2000/svg" version="1.1" viewBox="-5.0 -10.0 110.0 135.0">
 <path d="m28.059 34.922c0.20312 0 0.41016-0.046875 0.60938-0.14062 0.69141-0.33203 0.98047-1.168 0.64062-1.8594-1.3516-2.7773-2.0352-5.7656-2.0352-8.875s0.68359-6.0977 2.0352-8.875c0.33594-0.69141 0.046875-1.5195-0.64062-1.8594-0.69141-0.33594-1.5195-0.046875-1.8594 0.64062-1.5352 3.1602-2.3125 6.5508-2.3125 10.09 0 3.5391 0.77734 6.9297 2.3125 10.09 0.23828 0.49219 0.73438 0.78125 1.25 0.78125z"/>
 <path d="m72.297 24.047c0 2.8281-0.57031 5.5664-1.6914 8.1367-0.30469 0.70312 0.015625 1.5195 0.71484 1.8281 0.17969 0.078125 0.36719 0.11719 0.55469 0.11719 0.53516 0 1.0469-0.3125 1.2734-0.83203 1.2773-2.9219 1.9219-6.0352 1.9219-9.2461 0-3.5352-0.77734-6.9297-2.3125-10.09-0.33203-0.69141-1.168-0.98047-1.8594-0.64063-0.69141 0.33203-0.98047 1.168-0.64063 1.8594 1.3477 2.7773 2.0312 5.7656 2.0312 8.875z"/>
 <path d="m78.453 10.25c-0.42188-0.64062-1.2812-0.82031-1.9219-0.39844-0.64062 0.42188-0.82031 1.2812-0.39844 1.9219 2.4375 3.7109 3.7305 7.957 3.7305 12.273s-1.2891 8.5625-3.7305 12.273c-0.42187 0.64063-0.24219 1.5039 0.39844 1.9219 0.23438 0.15625 0.5 0.23047 0.76172 0.23047 0.45312 0 0.89453-0.21875 1.1641-0.625 2.7344-4.168 4.1836-8.9375 4.1836-13.797s-1.4492-9.6328-4.1836-13.797z"/>
 <path d="m23.391 36.324c-2.4375-3.7109-3.7305-7.9531-3.7305-12.273 0-4.3203 1.2891-8.5625 3.7305-12.273 0.42188-0.64062 0.24219-1.5039-0.39844-1.9219-0.64063-0.42188-1.5039-0.24219-1.9219 0.39844-2.7344 4.168-4.1836 8.9375-4.1836 13.797s1.4492 9.6328 4.1836 13.797c0.26563 0.40625 0.70703 0.625 1.1641 0.625 0.26172 0 0.52734-0.074218 0.76172-0.23047 0.64062-0.42188 0.82031-1.2812 0.39844-1.9219z"/>
 <path d="m77.59 87.266c-0.003906-0.042969-0.007813-0.082031-0.015625-0.12891-0.007813-0.042969-0.015625-0.085938-0.019531-0.12891-0.007813-0.042968-0.015626-0.078124-0.027344-0.12109-0.011719-0.046875-0.023438-0.085938-0.035156-0.13281-0.011719-0.039062-0.023438-0.078125-0.039063-0.11719-0.015625-0.046875-0.03125-0.085938-0.046875-0.12891-0.011719-0.019531-0.015625-0.046874-0.023438-0.066406l-24.918-56.062c3.6875-1.0703 6.3906-4.4766 6.3906-8.5039 0-4.8828-3.9727-8.8555-8.8555-8.8555s-8.8555 3.9727-8.8555 8.8555c0 4.0273 2.7031 7.4336 6.3906 8.5039l-24.918 56.062c-0.011719 0.019532-0.015626 0.046875-0.023438 0.066406-0.015625 0.042969-0.035156 0.085938-0.046875 0.12891-0.015625 0.039062-0.027344 0.078125-0.039063 0.11719-0.015624 0.046875-0.023437 0.085938-0.035156 0.13281-0.011718 0.042969-0.015625 0.078125-0.027344 0.12109-0.007812 0.042969-0.015624 0.085938-0.019531 0.12891-0.007812 0.042969-0.011719 0.082031-0.015625 0.12891-0.003906 0.042969-0.007812 0.082031-0.007812 0.125v0.13281c0 0.042968 0 0.078124 0.003906 0.11719 0 0.046875 0.007812 0.089844 0.011719 0.13281 0.003906 0.039062 0.011719 0.078124 0.015625 0.11719 0.007812 0.046875 0.015625 0.085937 0.023437 0.13281 0.007813 0.039062 0.015625 0.078124 0.027344 0.11328 0.011719 0.042969 0.019531 0.082031 0.035156 0.125 0.011719 0.039062 0.023438 0.078125 0.039063 0.11328 0.015625 0.042969 0.03125 0.078125 0.046875 0.11719 0.015625 0.039062 0.03125 0.078124 0.046875 0.11328 0.015625 0.039062 0.035156 0.074219 0.054687 0.10938 0.019531 0.039062 0.042969 0.074218 0.0625 0.10938 0.019531 0.035156 0.042969 0.070312 0.066407 0.10547 0.023437 0.035156 0.046874 0.074218 0.074218 0.10937 0.023438 0.035157 0.046875 0.066407 0.078125 0.097657 0.027344 0.035156 0.054688 0.066406 0.082031 0.097656 0.027344 0.03125 0.054688 0.0625 0.085938 0.089844 0.03125 0.03125 0.058594 0.058593 0.089844 0.089843 0.03125 0.027344 0.066406 0.058594 0.097656 0.085938s0.066406 0.050781 0.097656 0.078125c0.035156 0.027344 0.074219 0.050781 0.10938 0.078125 0.035157 0.023438 0.070313 0.046875 0.10938 0.070312 0.039063 0.023438 0.078125 0.046876 0.11719 0.066407 0.019531 0.011719 0.042968 0.023437 0.0625 0.035156 0.015625 0.011719 0.039062 0.015625 0.054687 0.023437 0.015625 0.007813 0.035157 0.015626 0.050781 0.027344 0.019532 0.011719 0.046876 0.015625 0.066407 0.023438 0.046875 0.015625 0.085937 0.035156 0.13281 0.050781 0.039063 0.015625 0.078125 0.023437 0.11328 0.039063 0.046876 0.015624 0.089844 0.027343 0.13672 0.039062 0.039063 0.011719 0.078125 0.015625 0.11719 0.023438 0.046875 0.007812 0.089843 0.015624 0.13672 0.023437 0.042968 0.007813 0.078124 0.011719 0.12109 0.015625 0.046875 0.003906 0.085938 0.007812 0.13281 0.011719h0.12109c0.046874 0 0.085937 0 0.12891-0.003907 0.042968 0 0.078125-0.007812 0.12109-0.011718 0.042968-0.003906 0.085937-0.011719 0.12891-0.015625 0.039062-0.007813 0.078125-0.015625 0.11719-0.019531 0.042969-0.007813 0.085938-0.015626 0.12891-0.027344 0.039062-0.011719 0.078124-0.019532 0.11328-0.03125 0.042969-0.015625 0.082031-0.027344 0.125-0.042969 0.035156-0.015625 0.074219-0.027344 0.10938-0.042969 0.042968-0.015625 0.082031-0.035156 0.125-0.054687 0.035156-0.015625 0.066406-0.035157 0.10156-0.050781 0.042969-0.019532 0.078125-0.046876 0.12109-0.066407 0.03125-0.019531 0.066406-0.039062 0.097656-0.058593 0.039063-0.023438 0.078125-0.050782 0.10938-0.078126 0.03125-0.023437 0.0625-0.046874 0.089844-0.070312 0.035156-0.027344 0.070313-0.054688 0.10547-0.085938 0.03125-0.027343 0.058594-0.054687 0.085937-0.082031 0.03125-0.03125 0.0625-0.0625 0.089844-0.09375s0.054687-0.0625 0.082031-0.097656c0.027344-0.03125 0.054688-0.066406 0.078125-0.10156 0.027344-0.035156 0.050781-0.074218 0.078125-0.10937 0.023438-0.035157 0.046875-0.070313 0.070313-0.10938 0.023437-0.039062 0.046875-0.078124 0.066406-0.11719 0.011719-0.019531 0.023437-0.042969 0.035156-0.0625l2.5-5c2.168-4.3359 5.75-7.918 10.086-10.082 6.3164-3.1562 13.855-3.1562 20.172 0 4.3359 2.168 7.918 5.75 10.082 10.086l2.5 5c0.019531 0.046875 0.046875 0.082031 0.074219 0.125 0.03125 0.050781 0.058594 0.10547 0.089844 0.15234 0.039062 0.054687 0.078124 0.10938 0.12109 0.16406 0.035157 0.046874 0.070313 0.089843 0.10938 0.13281 0.046875 0.050781 0.097656 0.097656 0.14453 0.14453 0.039062 0.039063 0.078124 0.078125 0.11719 0.10938 0.054687 0.046875 0.11328 0.085938 0.17188 0.12891 0.042969 0.027344 0.078125 0.058594 0.12109 0.085938 0.0625 0.039062 0.12891 0.070312 0.19141 0.10547 0.042969 0.019531 0.082031 0.046875 0.12891 0.066406 0.070313 0.03125 0.14062 0.050781 0.20703 0.078125 0.046874 0.015625 0.085937 0.035156 0.13281 0.046875 0.078125 0.019531 0.15234 0.035156 0.23438 0.050781 0.042969 0.007813 0.078125 0.019532 0.12109 0.023438 0.11328 0.015625 0.23438 0.023437 0.34766 0.023437h0.015625 0.007812c0.089844 0 0.18359-0.007812 0.27344-0.015625 0.03125-0.003906 0.0625-0.011718 0.097656-0.015625 0.0625-0.011719 0.12109-0.015625 0.18359-0.03125 0.039062-0.007812 0.078125-0.019531 0.10938-0.03125 0.054687-0.015625 0.10938-0.03125 0.16797-0.046875 0.039062-0.015625 0.078125-0.027344 0.11719-0.046875 0.035157-0.015625 0.066407-0.023437 0.10156-0.039062 0.019531-0.011719 0.039062-0.019531 0.058594-0.03125 0.015624-0.007813 0.03125-0.015625 0.046874-0.019531 0.019532-0.011719 0.042969-0.023438 0.0625-0.035157 0.042969-0.019531 0.078126-0.046875 0.11719-0.066406 0.035156-0.019531 0.074219-0.046875 0.10938-0.070313 0.039063-0.023437 0.074219-0.050781 0.10938-0.078124 0.035156-0.023438 0.066406-0.050782 0.097656-0.078126 0.035156-0.027343 0.066406-0.054687 0.097656-0.085937 0.03125-0.027344 0.0625-0.058594 0.089844-0.089844 0.03125-0.03125 0.058594-0.058593 0.085938-0.089843s0.054687-0.066407 0.082031-0.097657c0.023437-0.03125 0.050781-0.0625 0.078125-0.097656 0.023438-0.035156 0.046875-0.070313 0.074219-0.10938 0.019531-0.035156 0.046875-0.070312 0.066406-0.10547 0.019531-0.035156 0.042969-0.074219 0.0625-0.10938 0.019531-0.039062 0.039063-0.074218 0.054687-0.10938 0.015626-0.039062 0.035157-0.078125 0.046876-0.11328 0.015624-0.039062 0.03125-0.078125 0.046874-0.11719 0.015626-0.039062 0.027344-0.078124 0.039063-0.11328 0.015625-0.042969 0.023437-0.082031 0.035156-0.125 0.011719-0.039062 0.015625-0.078125 0.027344-0.11328 0.011719-0.042969 0.015625-0.085938 0.023437-0.13281 0.007813-0.039063 0.011719-0.078126 0.015626-0.11719 0.003906-0.046875 0.007812-0.085938 0.011718-0.13281 0-0.039063 0-0.078126 0.003906-0.11719v-0.13281c0-0.042969-0.003906-0.082032-0.007812-0.125zm-33.691-35.875h12.203l2.9297 6.5977h-18.066l2.9297-6.5977zm2.457-29.516c0-2.0117 1.6367-3.6445 3.6445-3.6445 2.0117 0 3.6445 1.6367 3.6445 3.6445 0 2.0117-1.6367 3.6445-3.6445 3.6445-2.0117 0-3.6445-1.6367-3.6445-3.6445zm3.6445 15.789 4.8633 10.949h-9.7344l4.8633-10.949zm12.414 31.258c-7.7734-3.8867-17.055-3.8867-24.828 0-0.66797 0.33203-1.3242 0.69531-1.957 1.082l4.1094-9.2383h20.535l4.1094 9.2383c-0.64062-0.38672-1.293-0.75-1.957-1.082z"/>
</svg>