<svg xmlns="http://www.w3.org/2000/svg" xmlns:xlink="http://www.w3.org/1999/xlink" version="1.1" x="0px" y="0px" viewBox="0 0 100 125" style="enable-background:new 0 0 100 100;" xml:space="preserve"><style type="text/css">
	.st0{fill-rule:evenodd;clip-rule:evenodd;}
</style><path d="M22.2573681,57.6762581l-3.8636856,6.662632c-1.3500652-0.3182907-2.4257879-1.1634865-3.3038816-2.6013832  c-0.4499979-0.7463799-0.4171038-1.7451973,0.0878296-2.5465126l1.3171721-2.0635529  c0-0.0109177,0.0109863-0.0109177,0.0109863-0.0219078l0.1646042-0.2634201  c0.5159225-0.8013153,1.4050007-1.2623024,2.2611198-1.1744728C20.3584194,55.8103371,21.434145,56.457901,22.2573681,57.6762581z"/><path d="M31.6969738,61.8802071l-5.8613167,8.8688774c-3.8088169-0.4829559-4.6869087-2.4148026-4.8954601-4.225853  l4.5002632-7.7602615c1.8330917-1.5586853,3.8856583-1.4598694,5.1259861-0.6366463  C31.7848015,58.9275742,32.1909218,60.2886276,31.6969738,61.8802071z"/><path d="M38.173027,69.0587616l-4.7198029,6.519928c-2.2830925-0.1098022-3.8636856-1.0757217-4.895462-2.9746017  l5.6198692-8.4956589c1.5476303-0.1975632,2.7879601,0.0877609,3.5014458,0.8671036  C38.4693413,65.8426361,38.6450005,67.3244858,38.173027,69.0587616z"/><path d="M42.9916458,75.6554718l-1.0867119,1.8001251c-0.5707245,0.9439468-1.5696068,1.5367126-2.6782227,1.5805969  c-1.1305275,0.0438766-2.0525665-0.4390106-2.6782265-1.3061829c-0.0877609-0.1317139-0.1865768-0.2744141-0.2853279-0.4171066  l4.3905258-6.06987c1.4598045-0.2525024,1.9537506,0.1755905,2.2830276,0.6146698  C43.7270393,72.8784943,43.749012,74.4151382,42.9916458,75.6554718z"/><path d="M80.9477005,60.4094162c-0.7683563,1.2073669-2.2062531,1.8878937-4.3685532,2.0854607l-12.3154602-7.6504593  c-0.7682915-0.4719734-1.7890816-0.2415161-2.2611198,0.5268402c-0.4829636,0.7793427-0.2414474,1.7891464,0.5269051,2.2721062  l12.0190811,7.4638824c-0.032959,1.119606-0.2963791,1.9757233-0.8451996,2.5684891  c-0.75737,0.8232193-2.1294098,1.2732239-4.0612488,1.3610458l-10.2079582-5.7515755  c-0.7903328-0.4500656-1.7891464-0.1756592-2.2391472,0.6256599c-0.4500656,0.7902603-0.164669,1.7891464,0.6255913,2.2391434  l9.6921043,5.4661865c-0.2524338,1.4708557-1.3390732,2.9526291-5.1698685,3.4685516l-9.4834862-4.5222397  c-0.8232231-0.395195-1.8001289-0.0439453-2.1952629,0.779274c-0.395195,0.8232269-0.0439453,1.8001328,0.7792778,2.1952667  l8.9786186,4.2807922c-0.1426315,0.8890762-0.7134209,1.3720398-1.8988838,1.6684189  c-0.8342094,0.2194748-1.7891426,0.1865768-2.8099327-0.0658569l-9.681118-2.4806595  c1.1964455-2.326973,1.0317764-5.1149979-0.4829597-7.0907211c-1.1415138-1.4817734-2.5903969-1.931839-3.841713-1.9757233  c0.1317101-2.0306625-0.4171028-3.8307266-1.6024971-5.1259232c-1.185463-1.3061829-2.886776-1.9867096-4.9064484-2.0196686  c0.0219727-2.1732903-0.9769096-4.138092-2.8209229-5.3564491c-1.9647369-1.2951965-4.9722366-1.6903267-7.771183-0.0548668  c-1.350132-1.7013168-3.1721706-2.7111855-5.3455276-2.9197388c-1.4817753-0.1536179-2.9525642,0.3402634-4.1051311,1.2732887  l-2.7111187-3.578289c-0.9110527-1.2073669-2.1184206-2.1732864-3.4794731-2.7660522l-6.4650655-2.8648033l4.6319733-24.0930252  l15.5095387,7.2444077c3.4685535,1.5366459,7.1017113,2.6672382,11.0421696,3.4465122  c-1.1634865,1.7232914-2.3379593,3.4465809-3.5343399,5.2247372c-0.5927639,0.8781586-0.9000664,1.8879623-0.9000664,2.9416466  c0,2.4038162,1.6134872,4.5003281,3.9075661,5.1149979c1.0976334,0.2963829,2.2501335,0.2414474,3.3477631-0.1865768  c3.1831589-1.2513161,6.0808563-3.7429619,8.8578949-7.5956573l4.2478294-1.2073708l13.654541,7.3431587L79.25737,56.8969841  c0.0219727,0.0109863,0.0438766,0.0328941,0.0658569,0.0438805l1.2293396,1.0976295  C81.2440796,58.6531677,81.4196701,59.673954,80.9477005,60.4094162z"/><path d="M97.5,45.8548126l-6.1248016,1.4159203c-1.5037537,0.3402634-2.9196701,1.0427628-4.0941467,2.0415764  c-2.0415802,1.7232895-4.2149353,3.1721725-6.6296692,4.4125023L65.3064499,40.1032333  c-0.0877686-0.0878296-0.1975708-0.1536865-0.3073044-0.2195396l-14.4228973-7.749279  c-0.2414436-0.1317101-0.5049324-0.1975632-0.7793427-0.1975632c-0.153614,0-0.3073006,0.0219059-0.4499969,0.0658531  l-5.4442787,1.5476341c-0.3621674,0.1098022-0.6805267,0.3292732-0.9000664,0.6476288  c-2.4915771,3.5782928-5.0161171,5.8284225-7.6834183,6.8821068c-0.4280281,0.1756592-0.8780937,0.1976318-1.3061867,0.0878296  c-1.0207901-0.2744102-1.470787-1.1744766-1.470787-1.9428291c0-0.395134,0.1097374-0.7792778,0.3402634-1.108551  c1.6793404-2.4696732,3.3148689-4.895462,4.9393425-7.3102665l0.0219727-0.0219727c0-0.0109215,0-0.0109215,0.0109215-0.0109215  l0.230526-0.3512497c0.1097374-0.1536846,0.2085533-0.3073692,0.2963829-0.4390793  c1.0646706-1.5696049,2.7440758-2.6782227,4.5990791-3.018486c4.6868401-0.8561192,9.2859192-1.2622375,13.6874313-1.1963806  c0.5049362,0,1.0647392,0.0767746,1.6684227,0.2194729l10.109211,2.4038143  c1.470787,0.3402634,3.018486,0.3732243,4.5112534,0.1098042l3.1611786-0.5927639  c0.7682877-0.1426983,1.536644-0.3621712,2.2830276-0.6805267l14.3460541-6.102829L97.5,45.8548126z"/></svg>