<svg xmlns="http://www.w3.org/2000/svg" version="1.1" viewBox="-5.0 -10.0 110.0 135.0">
 <path d="m83.391 30.273h-3l-0.003906-15.656c0-5.7773-7.2188-10.137-16.793-10.137h-28.191c-9.5703 0-16.793 4.3594-16.793 10.137v15.656h-2c-7.2734 0-13.195 5.9219-13.195 13.195v38.859c0 7.2734 5.9219 13.195 13.195 13.195h66.777c7.2734 0 13.195-5.9219 13.195-13.195l0.003907-38.859c0-7.2773-5.9219-13.195-13.195-13.195zm-43.598-11.812h19.414c4.707 0 7.3203 1.6367 7.5156 2.2109v9.5938l-34.445 0.003906-0.003906-9.5469c0.19922-0.62109 2.8125-2.2617 7.5195-2.2617zm10.207 67.023c-12.457 0-22.594-10.133-22.594-22.59s10.137-22.59 22.594-22.59 22.594 10.133 22.594 22.594c0 12.453-10.137 22.586-22.594 22.586z"/>
 <path d="m54.598 49.25h-9.5977v8.8477h-8.8477v9.5977h8.8477v8.8438h9.5977v-8.8438h8.8477v-9.5977h-8.8477z"/>
</svg>